<svg xmlns="http://www.w3.org/2000/svg" xmlns:xlink="http://www.w3.org/1999/xlink" width="1080" zoomAndPan="magnify" viewBox="0 0 810 1012.49997" height="1350" preserveAspectRatio="xMidYMid meet" version="1.0"><defs><g/><clipPath id="65f945b8ec"><path d="M 0.199219 0 L 809.800781 0 L 809.800781 1012 L 0.199219 1012 Z M 0.199219 0 " clip-rule="nonzero"/></clipPath><clipPath id="377ca82503"><path d="M 141.878906 104.4375 L 668.121094 104.4375 L 668.121094 630.679688 L 141.878906 630.679688 Z M 141.878906 104.4375 " clip-rule="nonzero"/></clipPath><clipPath id="aa8705954c"><path d="M 405 104.4375 C 550.316406 104.4375 668.121094 222.242188 668.121094 367.558594 C 668.121094 512.875 550.316406 630.679688 405 630.679688 C 259.683594 630.679688 141.878906 512.875 141.878906 367.558594 C 141.878906 222.242188 259.683594 104.4375 405 104.4375 L 405 162.324219 C 291.652344 162.324219 199.765625 254.210938 199.765625 367.558594 C 199.765625 480.90625 291.652344 572.792969 405 572.792969 C 518.347656 572.792969 610.234375 480.90625 610.234375 367.558594 C 610.234375 254.210938 518.347656 162.324219 405 162.324219 Z M 405 104.4375 " clip-rule="nonzero"/></clipPath><clipPath id="7ed400069c"><path d="M 141 106 L 668.121094 106 L 668.121094 631 L 141 631 Z M 141 106 " clip-rule="nonzero"/></clipPath><clipPath id="07711dd91b"><path d="M 437.519531 106.457031 C 569.15625 122.851562 668.003906 234.675781 668.121094 367.328125 C 668.234375 499.980469 569.585938 611.976562 437.976562 628.605469 C 306.371094 645.230469 182.964844 561.285156 150.089844 432.769531 C 117.210938 304.253906 185.144531 171.363281 308.566406 122.746094 C 318.1875 118.957031 329.101562 120.585938 337.191406 127.023438 C 345.285156 133.460938 349.328125 143.726562 347.800781 153.953125 C 346.273438 164.179688 339.402344 172.816406 329.78125 176.605469 C 233.511719 214.527344 180.523438 318.183594 206.167969 418.425781 C 231.8125 518.664062 328.066406 584.140625 430.722656 571.171875 C 533.375 558.207031 610.324219 470.847656 610.234375 367.378906 C 610.144531 263.910156 533.042969 176.6875 430.367188 163.898438 C 414.503906 161.921875 403.246094 147.460938 405.222656 131.601562 C 407.199219 115.738281 421.65625 104.480469 437.519531 106.457031 Z M 437.519531 106.457031 " clip-rule="nonzero"/></clipPath></defs><g clip-path="url(#65f945b8ec)"><path fill="#ffffff" d="M 0.199219 0 L 809.800781 0 L 809.800781 1012 L 0.199219 1012 Z M 0.199219 0 " fill-opacity="1" fill-rule="nonzero"/><path fill="#7261c8" d="M 0.199219 0 L 809.800781 0 L 809.800781 1012 L 0.199219 1012 Z M 0.199219 0 " fill-opacity="1" fill-rule="nonzero"/></g><g clip-path="url(#377ca82503)"><g clip-path="url(#aa8705954c)"><path fill="#7263c1" d="M 141.878906 104.4375 L 668.121094 104.4375 L 668.121094 630.679688 L 141.878906 630.679688 Z M 141.878906 104.4375 " fill-opacity="1" fill-rule="nonzero"/></g></g><g clip-path="url(#7ed400069c)"><g clip-path="url(#07711dd91b)"><path fill="#ffffff" d="M 141.878906 104.4375 L 668.121094 104.4375 L 668.121094 630.679688 L 141.878906 630.679688 Z M 141.878906 104.4375 " fill-opacity="1" fill-rule="nonzero"/></g></g><g fill="#ffffff" fill-opacity="1"><g transform="translate(257.208221, 411.168087)"><g><path d="M 39.859375 2 C 35.335938 2 31.238281 1.488281 27.5625 0.46875 C 23.882812 -0.550781 20.671875 -2.101562 17.921875 -4.1875 C 15.179688 -6.269531 12.945312 -8.859375 11.21875 -11.953125 C 9.5 -15.054688 8.414062 -18.6875 7.96875 -22.84375 L 21.390625 -26.296875 C 21.921875 -23.023438 22.828125 -20.347656 24.109375 -18.265625 C 25.390625 -16.179688 26.894531 -14.585938 28.625 -13.484375 C 30.351562 -12.378906 32.171875 -11.625 34.078125 -11.21875 C 35.984375 -10.820312 37.863281 -10.625 39.71875 -10.625 C 44.0625 -10.625 47.710938 -11.441406 50.671875 -13.078125 C 53.640625 -14.722656 56.007812 -17.050781 57.78125 -20.0625 C 59.550781 -23.070312 60.859375 -26.546875 61.703125 -30.484375 C 62.546875 -34.429688 62.96875 -38.707031 62.96875 -43.3125 C 62.96875 -45.4375 62.851562 -47.582031 62.625 -49.75 C 62.40625 -51.914062 62.140625 -54.0625 61.828125 -56.1875 C 61.523438 -58.3125 61.148438 -60.347656 60.703125 -62.296875 L 59.25 -62.296875 C 59.601562 -57.253906 59.113281 -52.914062 57.78125 -49.28125 C 56.457031 -45.65625 54.53125 -42.691406 52 -40.390625 C 49.476562 -38.085938 46.625 -36.40625 43.4375 -35.34375 C 40.25 -34.28125 37.0625 -33.75 33.875 -33.75 C 29.09375 -33.75 24.6875 -34.8125 20.65625 -36.9375 C 16.625 -39.0625 13.367188 -42.132812 10.890625 -46.15625 C 8.410156 -50.1875 7.171875 -55.035156 7.171875 -60.703125 C 7.171875 -64.421875 7.769531 -68.007812 8.96875 -71.46875 C 10.164062 -74.925781 12.023438 -78.023438 14.546875 -80.765625 C 17.066406 -83.515625 20.316406 -85.6875 24.296875 -87.28125 C 28.285156 -88.875 33.070312 -89.671875 38.65625 -89.671875 C 46.800781 -89.671875 53.726562 -87.851562 59.4375 -84.21875 C 65.15625 -80.59375 69.519531 -75.28125 72.53125 -68.28125 C 75.539062 -61.28125 77.046875 -52.691406 77.046875 -42.515625 C 77.046875 -33.210938 75.671875 -25.21875 72.921875 -18.53125 C 70.179688 -11.84375 66.039062 -6.75 60.5 -3.25 C 54.96875 0.25 48.085938 2 39.859375 2 Z M 38.125 -44.5 C 41.488281 -44.5 44.5 -45.25 47.15625 -46.75 C 49.8125 -48.257812 51.914062 -50.429688 53.46875 -53.265625 C 55.019531 -56.097656 55.796875 -59.375 55.796875 -63.09375 C 55.796875 -66.820312 55 -69.75 53.40625 -71.875 C 51.8125 -74 49.796875 -75.503906 47.359375 -76.390625 C 44.921875 -77.273438 42.421875 -77.71875 39.859375 -77.71875 C 36.671875 -77.71875 33.921875 -77.25 31.609375 -76.3125 C 29.304688 -75.382812 27.445312 -74.125 26.03125 -72.53125 C 24.613281 -70.9375 23.550781 -69.140625 22.84375 -67.140625 C 22.132812 -65.148438 21.78125 -63.050781 21.78125 -60.84375 C 21.78125 -57.382812 22.53125 -54.414062 24.03125 -51.9375 C 25.539062 -49.457031 27.535156 -47.597656 30.015625 -46.359375 C 32.503906 -45.117188 35.207031 -44.5 38.125 -44.5 Z M 38.125 -44.5 "/></g></g></g><g fill="#ffffff" fill-opacity="1"><g transform="translate(342.489461, 411.168087)"><g><path d="M 45.5625 2 C 33.425781 2 24.035156 -1.804688 17.390625 -9.421875 C 10.753906 -17.046875 7.4375 -28.207031 7.4375 -42.90625 C 7.4375 -52.644531 8.875 -60.988281 11.75 -67.9375 C 14.632812 -74.894531 18.863281 -80.253906 24.4375 -84.015625 C 30.019531 -87.785156 36.796875 -89.671875 44.765625 -89.671875 C 48.929688 -89.671875 52.757812 -89.140625 56.25 -88.078125 C 59.75 -87.015625 62.804688 -85.441406 65.421875 -83.359375 C 68.035156 -81.273438 70.207031 -78.640625 71.9375 -75.453125 C 73.664062 -72.265625 74.796875 -68.546875 75.328125 -64.296875 L 61.640625 -60.96875 C 61.191406 -64.875 60.125 -68.019531 58.4375 -70.40625 C 56.757812 -72.800781 54.679688 -74.53125 52.203125 -75.59375 C 49.722656 -76.65625 47.066406 -77.1875 44.234375 -77.1875 C 40.253906 -77.1875 36.820312 -76.253906 33.9375 -74.390625 C 31.0625 -72.535156 28.710938 -69.96875 26.890625 -66.6875 C 25.078125 -63.40625 23.75 -59.707031 22.90625 -55.59375 C 22.070312 -51.476562 21.65625 -47.117188 21.65625 -42.515625 C 21.65625 -39.859375 21.832031 -37 22.1875 -33.9375 C 22.539062 -30.882812 23.070312 -28.03125 23.78125 -25.375 L 24.96875 -25.375 C 24.707031 -30.59375 25.285156 -35.019531 26.703125 -38.65625 C 28.117188 -42.289062 30.109375 -45.234375 32.671875 -47.484375 C 35.242188 -49.742188 38.125 -51.40625 41.3125 -52.46875 C 44.5 -53.53125 47.6875 -54.0625 50.875 -54.0625 C 55.75 -54.0625 60.242188 -53.039062 64.359375 -51 C 68.484375 -48.96875 71.804688 -45.957031 74.328125 -41.96875 C 76.847656 -37.988281 78.109375 -33.03125 78.109375 -27.09375 C 78.109375 -23.375 77.488281 -19.785156 76.25 -16.328125 C 75.007812 -12.878906 73.101562 -9.757812 70.53125 -6.96875 C 67.96875 -4.1875 64.625 -1.992188 60.5 -0.390625 C 56.382812 1.203125 51.40625 2 45.5625 2 Z M 44.765625 -10.09375 C 48.046875 -10.09375 50.859375 -10.554688 53.203125 -11.484375 C 55.546875 -12.421875 57.492188 -13.6875 59.046875 -15.28125 C 60.597656 -16.875 61.703125 -18.664062 62.359375 -20.65625 C 63.023438 -22.644531 63.359375 -24.75 63.359375 -26.96875 C 63.359375 -30.59375 62.582031 -33.625 61.03125 -36.0625 C 59.488281 -38.5 57.453125 -40.289062 54.921875 -41.4375 C 52.398438 -42.59375 49.679688 -43.171875 46.765625 -43.171875 C 43.128906 -43.171875 39.9375 -42.414062 37.1875 -40.90625 C 34.445312 -39.40625 32.300781 -37.257812 30.75 -34.46875 C 29.195312 -31.675781 28.421875 -28.421875 28.421875 -24.703125 C 28.421875 -21.785156 28.90625 -19.394531 29.875 -17.53125 C 30.851562 -15.675781 32.117188 -14.191406 33.671875 -13.078125 C 35.222656 -11.972656 36.972656 -11.195312 38.921875 -10.75 C 40.867188 -10.3125 42.816406 -10.09375 44.765625 -10.09375 Z M 44.765625 -10.09375 "/></g></g></g><g fill="#ffffff" fill-opacity="1"><g transform="translate(427.37214, 411.168087)"><g><path d="M 28.296875 -41.046875 C 23.691406 -41.046875 19.53125 -41.972656 15.8125 -43.828125 C 12.09375 -45.691406 9.144531 -48.484375 6.96875 -52.203125 C 4.800781 -55.921875 3.71875 -60.523438 3.71875 -66.015625 C 3.71875 -70.535156 4.40625 -74.410156 5.78125 -77.640625 C 7.15625 -80.878906 9.035156 -83.492188 11.421875 -85.484375 C 13.816406 -87.472656 16.492188 -88.929688 19.453125 -89.859375 C 22.421875 -90.796875 25.457031 -91.265625 28.5625 -91.265625 C 33.164062 -91.265625 37.328125 -90.332031 41.046875 -88.46875 C 44.765625 -86.613281 47.707031 -83.828125 49.875 -80.109375 C 52.050781 -76.390625 53.140625 -71.738281 53.140625 -66.15625 C 53.140625 -60.132812 51.921875 -55.265625 49.484375 -51.546875 C 47.046875 -47.828125 43.945312 -45.144531 40.1875 -43.5 C 36.425781 -41.863281 32.460938 -41.046875 28.296875 -41.046875 Z M 28.828125 -52.34375 C 30.773438 -52.34375 32.675781 -52.785156 34.53125 -53.671875 C 36.394531 -54.554688 37.925781 -55.972656 39.125 -57.921875 C 40.320312 -59.867188 40.921875 -62.476562 40.921875 -65.75 C 40.921875 -69.300781 40.253906 -72.09375 38.921875 -74.125 C 37.597656 -76.164062 35.957031 -77.628906 34 -78.515625 C 32.050781 -79.398438 30.0625 -79.84375 28.03125 -79.84375 C 26.082031 -79.84375 24.175781 -79.398438 22.3125 -78.515625 C 20.457031 -77.628906 18.953125 -76.210938 17.796875 -74.265625 C 16.648438 -72.316406 16.078125 -69.75 16.078125 -66.5625 C 16.078125 -63.1875 16.695312 -60.457031 17.9375 -58.375 C 19.175781 -56.300781 20.789062 -54.773438 22.78125 -53.796875 C 24.769531 -52.828125 26.785156 -52.34375 28.828125 -52.34375 Z M 96.703125 3.984375 C 92.191406 3.984375 88.050781 3.050781 84.28125 1.1875 C 80.519531 -0.664062 77.578125 -3.472656 75.453125 -7.234375 C 73.328125 -11.003906 72.265625 -15.632812 72.265625 -21.125 C 72.265625 -25.632812 72.953125 -29.484375 74.328125 -32.671875 C 75.703125 -35.867188 77.5625 -38.460938 79.90625 -40.453125 C 82.25 -42.441406 84.90625 -43.921875 87.875 -44.890625 C 90.84375 -45.867188 93.875 -46.359375 96.96875 -46.359375 C 101.582031 -46.359375 105.75 -45.425781 109.46875 -43.5625 C 113.1875 -41.707031 116.148438 -38.921875 118.359375 -35.203125 C 120.578125 -31.484375 121.6875 -26.789062 121.6875 -21.125 C 121.6875 -15.101562 120.46875 -10.253906 118.03125 -6.578125 C 115.59375 -2.898438 112.46875 -0.222656 108.65625 1.453125 C 104.851562 3.140625 100.867188 3.984375 96.703125 3.984375 Z M 97.234375 -7.4375 C 99.273438 -7.4375 101.203125 -7.878906 103.015625 -8.765625 C 104.835938 -9.648438 106.34375 -11.046875 107.53125 -12.953125 C 108.726562 -14.859375 109.328125 -17.445312 109.328125 -20.71875 C 109.328125 -24.257812 108.6875 -27.046875 107.40625 -29.078125 C 106.125 -31.117188 104.484375 -32.601562 102.484375 -33.53125 C 100.492188 -34.46875 98.523438 -34.9375 96.578125 -34.9375 C 94.535156 -34.9375 92.582031 -34.46875 90.71875 -33.53125 C 88.863281 -32.601562 87.359375 -31.1875 86.203125 -29.28125 C 85.054688 -27.382812 84.484375 -24.796875 84.484375 -21.515625 C 84.484375 -18.242188 85.101562 -15.546875 86.34375 -13.421875 C 87.582031 -11.296875 89.195312 -9.765625 91.1875 -8.828125 C 93.1875 -7.898438 95.203125 -7.4375 97.234375 -7.4375 Z M 28.03125 0 L 81.296875 -87.671875 L 95.78125 -87.671875 L 42.515625 0 Z M 28.03125 0 "/></g></g></g><g fill="#ffffff" fill-opacity="1"><g transform="translate(73.148259, 712.390551)"><g><path d="M 19.875 0.734375 C 17.1875 0.734375 14.804688 0.296875 12.734375 -0.578125 C 10.660156 -1.460938 8.914062 -2.722656 7.5 -4.359375 C 6.082031 -6.003906 5 -8 4.25 -10.34375 C 3.507812 -12.695312 3.140625 -15.347656 3.140625 -18.296875 C 3.140625 -22.628906 3.863281 -26.222656 5.3125 -29.078125 C 6.769531 -31.929688 8.765625 -34.078125 11.296875 -35.515625 C 13.835938 -36.953125 16.734375 -37.671875 19.984375 -37.671875 C 22.515625 -37.671875 24.804688 -37.25 26.859375 -36.40625 C 28.910156 -35.5625 30.664062 -34.3125 32.125 -32.65625 C 33.582031 -31 34.703125 -28.972656 35.484375 -26.578125 C 36.265625 -24.191406 36.65625 -21.453125 36.65625 -18.359375 C 36.65625 -15.367188 36.28125 -12.6875 35.53125 -10.3125 C 34.789062 -7.945312 33.703125 -5.941406 32.265625 -4.296875 C 30.828125 -2.660156 29.0625 -1.410156 26.96875 -0.546875 C 24.882812 0.304688 22.519531 0.734375 19.875 0.734375 Z M 19.921875 -4.359375 C 21.046875 -4.359375 22.222656 -4.554688 23.453125 -4.953125 C 24.679688 -5.347656 25.828125 -6.035156 26.890625 -7.015625 C 27.953125 -8.003906 28.8125 -9.40625 29.46875 -11.21875 C 30.125 -13.03125 30.453125 -15.335938 30.453125 -18.140625 C 30.453125 -21.492188 29.972656 -24.210938 29.015625 -26.296875 C 28.066406 -28.390625 26.796875 -29.941406 25.203125 -30.953125 C 23.617188 -31.960938 21.859375 -32.46875 19.921875 -32.46875 C 18.878906 -32.46875 17.75 -32.28125 16.53125 -31.90625 C 15.320312 -31.53125 14.164062 -30.835938 13.0625 -29.828125 C 11.96875 -28.816406 11.082031 -27.390625 10.40625 -25.546875 C 9.738281 -23.703125 9.40625 -21.304688 9.40625 -18.359375 C 9.40625 -15.597656 9.703125 -13.320312 10.296875 -11.53125 C 10.890625 -9.738281 11.695312 -8.3125 12.71875 -7.25 C 13.75 -6.1875 14.890625 -5.4375 16.140625 -5 C 17.390625 -4.570312 18.648438 -4.359375 19.921875 -4.359375 Z M 19.921875 -4.359375 "/></g></g></g><g fill="#ffffff" fill-opacity="1"><g transform="translate(112.939054, 712.390551)"><g><path d="M 6.375 0 L 6.375 -19.8125 L 1.40625 -19.8125 L 1.40625 -24.515625 L 8.90625 -24.125 L 8.90625 -25.078125 C 7.78125 -25.410156 6.851562 -25.898438 6.125 -26.546875 C 5.394531 -27.203125 4.863281 -27.976562 4.53125 -28.875 C 4.195312 -29.769531 4.03125 -30.722656 4.03125 -31.734375 C 4.03125 -33.296875 4.394531 -34.664062 5.125 -35.84375 C 5.851562 -37.019531 6.894531 -37.929688 8.25 -38.578125 C 9.613281 -39.234375 11.226562 -39.5625 13.09375 -39.5625 C 14.582031 -39.5625 15.953125 -39.359375 17.203125 -38.953125 C 18.453125 -38.546875 19.472656 -38.023438 20.265625 -37.390625 L 19.640625 -31.796875 C 18.859375 -32.460938 17.953125 -32.988281 16.921875 -33.375 C 15.898438 -33.769531 14.882812 -33.96875 13.875 -33.96875 C 12.644531 -33.96875 11.644531 -33.601562 10.875 -32.875 C 10.113281 -32.15625 9.734375 -31.046875 9.734375 -29.546875 C 9.734375 -28.617188 9.890625 -27.828125 10.203125 -27.171875 C 10.523438 -26.515625 10.9375 -25.988281 11.4375 -25.59375 C 11.945312 -25.207031 12.484375 -24.921875 13.046875 -24.734375 L 19.875 -24.734375 L 19.875 -19.8125 L 12.3125 -19.8125 L 12.3125 0 Z M 6.375 0 "/></g></g></g><g fill="#ffffff" fill-opacity="1"><g transform="translate(133.981728, 712.390551)"><g/></g></g><g fill="#ffffff" fill-opacity="1"><g transform="translate(147.581109, 712.390551)"><g><path d="M 13.546875 0.734375 C 12.085938 0.734375 10.804688 0.515625 9.703125 0.078125 C 8.609375 -0.347656 7.675781 -0.960938 6.90625 -1.765625 C 6.144531 -2.566406 5.519531 -3.535156 5.03125 -4.671875 C 4.550781 -5.804688 4.1875 -7.082031 3.9375 -8.5 C 3.695312 -9.925781 3.578125 -11.457031 3.578125 -13.09375 L 3.578125 -29.109375 L 9.734375 -29.109375 L 9.734375 -14.5 C 9.734375 -13.445312 9.78125 -12.34375 9.875 -11.1875 C 9.96875 -10.03125 10.191406 -8.9375 10.546875 -7.90625 C 10.898438 -6.882812 11.46875 -6.054688 12.25 -5.421875 C 13.039062 -4.796875 14.125 -4.484375 15.5 -4.484375 C 16.625 -4.484375 17.625 -4.757812 18.5 -5.3125 C 19.375 -5.875 20.132812 -6.664062 20.78125 -7.6875 C 21.4375 -8.71875 21.953125 -9.941406 22.328125 -11.359375 C 22.703125 -12.773438 22.945312 -14.320312 23.0625 -16 L 23.0625 -29.109375 L 29.15625 -29.109375 L 29.15625 0 L 23.953125 0 L 24.296875 -9.515625 L 23.390625 -9.515625 C 22.910156 -7.128906 22.226562 -5.179688 21.34375 -3.671875 C 20.46875 -2.160156 19.382812 -1.046875 18.09375 -0.328125 C 16.8125 0.378906 15.296875 0.734375 13.546875 0.734375 Z M 13.546875 0.734375 "/></g></g></g><g fill="#ffffff" fill-opacity="1"><g transform="translate(180.76808, 712.390551)"><g><path d="M 15.171875 0.734375 C 13.191406 0.734375 11.40625 0.523438 9.8125 0.109375 C 8.226562 -0.296875 6.894531 -0.878906 5.8125 -1.640625 C 4.738281 -2.410156 3.890625 -3.34375 3.265625 -4.4375 C 2.648438 -5.539062 2.304688 -6.785156 2.234375 -8.171875 L 7.21875 -9.6875 C 7.21875 -8.53125 7.550781 -7.519531 8.21875 -6.65625 C 8.894531 -5.800781 9.847656 -5.140625 11.078125 -4.671875 C 12.304688 -4.203125 13.78125 -3.96875 15.5 -3.96875 C 17.550781 -3.96875 19.132812 -4.300781 20.25 -4.96875 C 21.375 -5.644531 21.9375 -6.582031 21.9375 -7.78125 C 21.9375 -8.675781 21.628906 -9.382812 21.015625 -9.90625 C 20.398438 -10.425781 19.53125 -10.851562 18.40625 -11.1875 C 17.289062 -11.53125 15.96875 -11.847656 14.4375 -12.140625 C 13.019531 -12.441406 11.628906 -12.785156 10.265625 -13.171875 C 8.910156 -13.566406 7.660156 -14.082031 6.515625 -14.71875 C 5.378906 -15.351562 4.46875 -16.179688 3.78125 -17.203125 C 3.09375 -18.234375 2.75 -19.53125 2.75 -21.09375 C 2.75 -22.882812 3.210938 -24.425781 4.140625 -25.71875 C 5.078125 -27.007812 6.429688 -28.015625 8.203125 -28.734375 C 9.972656 -29.460938 12.085938 -29.828125 14.546875 -29.828125 C 16.941406 -29.828125 19.003906 -29.472656 20.734375 -28.765625 C 22.472656 -28.054688 23.863281 -27.054688 24.90625 -25.765625 C 25.945312 -24.484375 26.5625 -22.945312 26.75 -21.15625 L 21.609375 -19.703125 C 21.566406 -20.890625 21.238281 -21.882812 20.625 -22.6875 C 20.007812 -23.5 19.175781 -24.097656 18.125 -24.484375 C 17.082031 -24.878906 15.851562 -25.078125 14.4375 -25.078125 C 12.570312 -25.078125 11.113281 -24.738281 10.0625 -24.0625 C 9.019531 -23.394531 8.5 -22.484375 8.5 -21.328125 C 8.5 -20.429688 8.828125 -19.710938 9.484375 -19.171875 C 10.140625 -18.628906 11.023438 -18.195312 12.140625 -17.875 C 13.265625 -17.5625 14.570312 -17.253906 16.0625 -16.953125 C 17.519531 -16.660156 18.9375 -16.328125 20.3125 -15.953125 C 21.695312 -15.578125 22.9375 -15.082031 24.03125 -14.46875 C 25.132812 -13.851562 26.015625 -13.03125 26.671875 -12 C 27.328125 -10.976562 27.65625 -9.679688 27.65625 -8.109375 C 27.65625 -6.210938 27.148438 -4.597656 26.140625 -3.265625 C 25.128906 -1.941406 23.691406 -0.941406 21.828125 -0.265625 C 19.960938 0.398438 17.742188 0.734375 15.171875 0.734375 Z M 15.171875 0.734375 "/></g></g></g><g fill="#ffffff" fill-opacity="1"><g transform="translate(210.653161, 712.390551)"><g><path d="M 16.90625 0.734375 C 14.59375 0.734375 12.539062 0.390625 10.75 -0.296875 C 8.957031 -0.992188 7.441406 -1.984375 6.203125 -3.265625 C 4.972656 -4.554688 4.050781 -6.109375 3.4375 -7.921875 C 2.820312 -9.734375 2.515625 -11.773438 2.515625 -14.046875 C 2.515625 -16.328125 2.820312 -18.425781 3.4375 -20.34375 C 4.050781 -22.269531 4.945312 -23.941406 6.125 -25.359375 C 7.300781 -26.773438 8.753906 -27.875 10.484375 -28.65625 C 12.222656 -29.4375 14.210938 -29.828125 16.453125 -29.828125 C 18.472656 -29.828125 20.289062 -29.488281 21.90625 -28.8125 C 23.53125 -28.144531 24.898438 -27.128906 26.015625 -25.765625 C 27.140625 -24.410156 27.972656 -22.710938 28.515625 -20.671875 C 29.054688 -18.640625 29.269531 -16.28125 29.15625 -13.59375 L 6.375 -13.4375 L 6.375 -17.234375 L 25.46875 -17.40625 L 23.453125 -15.109375 C 23.640625 -17.273438 23.441406 -19.082031 22.859375 -20.53125 C 22.285156 -21.988281 21.4375 -23.070312 20.3125 -23.78125 C 19.195312 -24.488281 17.910156 -24.84375 16.453125 -24.84375 C 14.816406 -24.84375 13.390625 -24.421875 12.171875 -23.578125 C 10.960938 -22.742188 10.03125 -21.523438 9.375 -19.921875 C 8.71875 -18.316406 8.390625 -16.394531 8.390625 -14.15625 C 8.390625 -10.800781 9.125 -8.273438 10.59375 -6.578125 C 12.070312 -4.878906 14.191406 -4.03125 16.953125 -4.03125 C 18.109375 -4.03125 19.109375 -4.171875 19.953125 -4.453125 C 20.796875 -4.734375 21.492188 -5.125 22.046875 -5.625 C 22.609375 -6.125 23.054688 -6.703125 23.390625 -7.359375 C 23.734375 -8.015625 23.992188 -8.695312 24.171875 -9.40625 L 29.546875 -8.234375 C 29.210938 -6.890625 28.71875 -5.664062 28.0625 -4.5625 C 27.414062 -3.457031 26.566406 -2.515625 25.515625 -1.734375 C 24.472656 -0.953125 23.242188 -0.347656 21.828125 0.078125 C 20.410156 0.515625 18.769531 0.734375 16.90625 0.734375 Z M 16.90625 0.734375 "/></g></g></g><g fill="#ffffff" fill-opacity="1"><g transform="translate(242.32909, 712.390551)"><g><path d="M 4.03125 0 L 4.03125 -29.109375 L 9.34375 -29.109375 L 9.015625 -18.8125 L 9.96875 -18.8125 C 10.300781 -21.15625 10.820312 -23.144531 11.53125 -24.78125 C 12.238281 -26.425781 13.195312 -27.671875 14.40625 -28.515625 C 15.625 -29.359375 17.109375 -29.78125 18.859375 -29.78125 C 19.273438 -29.78125 19.710938 -29.75 20.171875 -29.6875 C 20.640625 -29.632812 21.171875 -29.515625 21.765625 -29.328125 L 21.4375 -22.953125 C 20.875 -23.171875 20.296875 -23.335938 19.703125 -23.453125 C 19.109375 -23.566406 18.546875 -23.625 18.015625 -23.625 C 16.566406 -23.625 15.316406 -23.191406 14.265625 -22.328125 C 13.222656 -21.472656 12.363281 -20.28125 11.6875 -18.75 C 11.019531 -17.21875 10.5 -15.460938 10.125 -13.484375 L 10.125 0 Z M 4.03125 0 "/></g></g></g><g fill="#ffffff" fill-opacity="1"><g transform="translate(264.882793, 712.390551)"><g><path d="M 15.171875 0.734375 C 13.191406 0.734375 11.40625 0.523438 9.8125 0.109375 C 8.226562 -0.296875 6.894531 -0.878906 5.8125 -1.640625 C 4.738281 -2.410156 3.890625 -3.34375 3.265625 -4.4375 C 2.648438 -5.539062 2.304688 -6.785156 2.234375 -8.171875 L 7.21875 -9.6875 C 7.21875 -8.53125 7.550781 -7.519531 8.21875 -6.65625 C 8.894531 -5.800781 9.847656 -5.140625 11.078125 -4.671875 C 12.304688 -4.203125 13.78125 -3.96875 15.5 -3.96875 C 17.550781 -3.96875 19.132812 -4.300781 20.25 -4.96875 C 21.375 -5.644531 21.9375 -6.582031 21.9375 -7.78125 C 21.9375 -8.675781 21.628906 -9.382812 21.015625 -9.90625 C 20.398438 -10.425781 19.53125 -10.851562 18.40625 -11.1875 C 17.289062 -11.53125 15.96875 -11.847656 14.4375 -12.140625 C 13.019531 -12.441406 11.628906 -12.785156 10.265625 -13.171875 C 8.910156 -13.566406 7.660156 -14.082031 6.515625 -14.71875 C 5.378906 -15.351562 4.46875 -16.179688 3.78125 -17.203125 C 3.09375 -18.234375 2.75 -19.53125 2.75 -21.09375 C 2.75 -22.882812 3.210938 -24.425781 4.140625 -25.71875 C 5.078125 -27.007812 6.429688 -28.015625 8.203125 -28.734375 C 9.972656 -29.460938 12.085938 -29.828125 14.546875 -29.828125 C 16.941406 -29.828125 19.003906 -29.472656 20.734375 -28.765625 C 22.472656 -28.054688 23.863281 -27.054688 24.90625 -25.765625 C 25.945312 -24.484375 26.5625 -22.945312 26.75 -21.15625 L 21.609375 -19.703125 C 21.566406 -20.890625 21.238281 -21.882812 20.625 -22.6875 C 20.007812 -23.5 19.175781 -24.097656 18.125 -24.484375 C 17.082031 -24.878906 15.851562 -25.078125 14.4375 -25.078125 C 12.570312 -25.078125 11.113281 -24.738281 10.0625 -24.0625 C 9.019531 -23.394531 8.5 -22.484375 8.5 -21.328125 C 8.5 -20.429688 8.828125 -19.710938 9.484375 -19.171875 C 10.140625 -18.628906 11.023438 -18.195312 12.140625 -17.875 C 13.265625 -17.5625 14.570312 -17.253906 16.0625 -16.953125 C 17.519531 -16.660156 18.9375 -16.328125 20.3125 -15.953125 C 21.695312 -15.578125 22.9375 -15.082031 24.03125 -14.46875 C 25.132812 -13.851562 26.015625 -13.03125 26.671875 -12 C 27.328125 -10.976562 27.65625 -9.679688 27.65625 -8.109375 C 27.65625 -6.210938 27.148438 -4.597656 26.140625 -3.265625 C 25.128906 -1.941406 23.691406 -0.941406 21.828125 -0.265625 C 19.960938 0.398438 17.742188 0.734375 15.171875 0.734375 Z M 15.171875 0.734375 "/></g></g></g><g fill="#ffffff" fill-opacity="1"><g transform="translate(294.599981, 712.390551)"><g/></g></g><g fill="#ffffff" fill-opacity="1"><g transform="translate(308.199373, 712.390551)"><g><path d="M 10.859375 0.734375 C 9.253906 0.734375 7.816406 0.425781 6.546875 -0.1875 C 5.273438 -0.8125 4.265625 -1.71875 3.515625 -2.90625 C 2.773438 -4.101562 2.40625 -5.597656 2.40625 -7.390625 C 2.40625 -9.328125 2.832031 -10.882812 3.6875 -12.0625 C 4.550781 -13.238281 5.65625 -14.148438 7 -14.796875 C 8.34375 -15.453125 9.796875 -15.925781 11.359375 -16.21875 C 12.929688 -16.519531 14.441406 -16.765625 15.890625 -16.953125 C 17.347656 -17.179688 18.492188 -17.390625 19.328125 -17.578125 C 20.171875 -17.765625 20.78125 -18.0625 21.15625 -18.46875 C 21.53125 -18.875 21.71875 -19.453125 21.71875 -20.203125 C 21.71875 -21.097656 21.507812 -21.898438 21.09375 -22.609375 C 20.6875 -23.316406 20.082031 -23.882812 19.28125 -24.3125 C 18.476562 -24.75 17.441406 -24.96875 16.171875 -24.96875 C 15.054688 -24.96875 13.972656 -24.769531 12.921875 -24.375 C 11.878906 -23.976562 10.972656 -23.359375 10.203125 -22.515625 C 9.441406 -21.679688 8.929688 -20.554688 8.671875 -19.140625 L 3.1875 -20.828125 C 3.519531 -22.273438 4.0625 -23.554688 4.8125 -24.671875 C 5.5625 -25.796875 6.484375 -26.738281 7.578125 -27.5 C 8.679688 -28.269531 9.953125 -28.847656 11.390625 -29.234375 C 12.828125 -29.628906 14.40625 -29.828125 16.125 -29.828125 C 18.4375 -29.828125 20.335938 -29.507812 21.828125 -28.875 C 23.316406 -28.238281 24.488281 -27.359375 25.34375 -26.234375 C 26.207031 -25.117188 26.816406 -23.832031 27.171875 -22.375 C 27.523438 -20.925781 27.703125 -19.363281 27.703125 -17.6875 L 27.703125 -11.859375 C 27.703125 -10.671875 27.726562 -9.382812 27.78125 -8 C 27.84375 -6.625 27.921875 -5.253906 28.015625 -3.890625 C 28.109375 -2.523438 28.207031 -1.226562 28.3125 0 L 22.78125 0 C 22.707031 -1.15625 22.625 -2.347656 22.53125 -3.578125 C 22.4375 -4.804688 22.367188 -6.039062 22.328125 -7.28125 L 21.546875 -7.28125 C 21.023438 -5.863281 20.285156 -4.535156 19.328125 -3.296875 C 18.378906 -2.066406 17.195312 -1.085938 15.78125 -0.359375 C 14.363281 0.367188 12.722656 0.734375 10.859375 0.734375 Z M 12.984375 -3.96875 C 13.765625 -3.96875 14.566406 -4.109375 15.390625 -4.390625 C 16.210938 -4.671875 17.023438 -5.09375 17.828125 -5.65625 C 18.628906 -6.21875 19.363281 -6.941406 20.03125 -7.828125 C 20.707031 -8.722656 21.285156 -9.789062 21.765625 -11.03125 L 21.765625 -15.953125 L 23.171875 -15.734375 C 22.578125 -15.171875 21.800781 -14.738281 20.84375 -14.4375 C 19.894531 -14.144531 18.859375 -13.910156 17.734375 -13.734375 C 16.617188 -13.566406 15.507812 -13.378906 14.40625 -13.171875 C 13.3125 -12.972656 12.304688 -12.695312 11.390625 -12.34375 C 10.472656 -11.988281 9.742188 -11.484375 9.203125 -10.828125 C 8.660156 -10.171875 8.390625 -9.285156 8.390625 -8.171875 C 8.390625 -6.828125 8.804688 -5.789062 9.640625 -5.0625 C 10.484375 -4.332031 11.597656 -3.96875 12.984375 -3.96875 Z M 12.984375 -3.96875 "/></g></g></g><g fill="#ffffff" fill-opacity="1"><g transform="translate(339.651453, 712.390551)"><g><path d="M 19.921875 0.734375 C 18.054688 0.734375 16.453125 0.359375 15.109375 -0.390625 C 13.765625 -1.140625 12.679688 -2.1875 11.859375 -3.53125 C 11.046875 -4.875 10.453125 -6.421875 10.078125 -8.171875 L 9.171875 -8.171875 L 9.34375 0 L 4.03125 0 L 4.03125 -39.34375 L 10.125 -39.34375 L 10.125 -30.21875 C 10.125 -29.289062 10.078125 -28.285156 9.984375 -27.203125 C 9.890625 -26.117188 9.757812 -25.015625 9.59375 -23.890625 C 9.425781 -22.773438 9.234375 -21.640625 9.015625 -20.484375 L 10.078125 -20.484375 C 10.484375 -22.234375 11.085938 -23.804688 11.890625 -25.203125 C 12.691406 -26.609375 13.753906 -27.722656 15.078125 -28.546875 C 16.410156 -29.367188 18.046875 -29.78125 19.984375 -29.78125 C 22.410156 -29.78125 24.488281 -29.144531 26.21875 -27.875 C 27.957031 -26.601562 29.300781 -24.816406 30.25 -22.515625 C 31.195312 -20.222656 31.671875 -17.53125 31.671875 -14.4375 C 31.671875 -11.414062 31.203125 -8.765625 30.265625 -6.484375 C 29.335938 -4.210938 28 -2.441406 26.25 -1.171875 C 24.5 0.0976562 22.390625 0.734375 19.921875 0.734375 Z M 18.1875 -4.421875 C 19.675781 -4.421875 20.953125 -4.832031 22.015625 -5.65625 C 23.085938 -6.476562 23.910156 -7.644531 24.484375 -9.15625 C 25.066406 -10.664062 25.359375 -12.425781 25.359375 -14.4375 C 25.359375 -16.414062 25.078125 -18.171875 24.515625 -19.703125 C 23.953125 -21.234375 23.140625 -22.4375 22.078125 -23.3125 C 21.015625 -24.1875 19.71875 -24.625 18.1875 -24.625 C 17.101562 -24.625 16.125 -24.410156 15.25 -23.984375 C 14.375 -23.554688 13.617188 -22.988281 12.984375 -22.28125 C 12.347656 -21.570312 11.816406 -20.785156 11.390625 -19.921875 C 10.960938 -19.066406 10.644531 -18.191406 10.4375 -17.296875 C 10.226562 -16.398438 10.125 -15.578125 10.125 -14.828125 L 10.125 -14.046875 C 10.125 -13.035156 10.300781 -11.960938 10.65625 -10.828125 C 11.007812 -9.691406 11.519531 -8.640625 12.1875 -7.671875 C 12.863281 -6.703125 13.707031 -5.914062 14.71875 -5.3125 C 15.726562 -4.71875 16.882812 -4.421875 18.1875 -4.421875 Z M 18.1875 -4.421875 "/></g></g></g><g fill="#ffffff" fill-opacity="1"><g transform="translate(373.95772, 712.390551)"><g><path d="M 10.859375 0.734375 C 9.253906 0.734375 7.816406 0.425781 6.546875 -0.1875 C 5.273438 -0.8125 4.265625 -1.71875 3.515625 -2.90625 C 2.773438 -4.101562 2.40625 -5.597656 2.40625 -7.390625 C 2.40625 -9.328125 2.832031 -10.882812 3.6875 -12.0625 C 4.550781 -13.238281 5.65625 -14.148438 7 -14.796875 C 8.34375 -15.453125 9.796875 -15.925781 11.359375 -16.21875 C 12.929688 -16.519531 14.441406 -16.765625 15.890625 -16.953125 C 17.347656 -17.179688 18.492188 -17.390625 19.328125 -17.578125 C 20.171875 -17.765625 20.78125 -18.0625 21.15625 -18.46875 C 21.53125 -18.875 21.71875 -19.453125 21.71875 -20.203125 C 21.71875 -21.097656 21.507812 -21.898438 21.09375 -22.609375 C 20.6875 -23.316406 20.082031 -23.882812 19.28125 -24.3125 C 18.476562 -24.75 17.441406 -24.96875 16.171875 -24.96875 C 15.054688 -24.96875 13.972656 -24.769531 12.921875 -24.375 C 11.878906 -23.976562 10.972656 -23.359375 10.203125 -22.515625 C 9.441406 -21.679688 8.929688 -20.554688 8.671875 -19.140625 L 3.1875 -20.828125 C 3.519531 -22.273438 4.0625 -23.554688 4.8125 -24.671875 C 5.5625 -25.796875 6.484375 -26.738281 7.578125 -27.5 C 8.679688 -28.269531 9.953125 -28.847656 11.390625 -29.234375 C 12.828125 -29.628906 14.40625 -29.828125 16.125 -29.828125 C 18.4375 -29.828125 20.335938 -29.507812 21.828125 -28.875 C 23.316406 -28.238281 24.488281 -27.359375 25.34375 -26.234375 C 26.207031 -25.117188 26.816406 -23.832031 27.171875 -22.375 C 27.523438 -20.925781 27.703125 -19.363281 27.703125 -17.6875 L 27.703125 -11.859375 C 27.703125 -10.671875 27.726562 -9.382812 27.78125 -8 C 27.84375 -6.625 27.921875 -5.253906 28.015625 -3.890625 C 28.109375 -2.523438 28.207031 -1.226562 28.3125 0 L 22.78125 0 C 22.707031 -1.15625 22.625 -2.347656 22.53125 -3.578125 C 22.4375 -4.804688 22.367188 -6.039062 22.328125 -7.28125 L 21.546875 -7.28125 C 21.023438 -5.863281 20.285156 -4.535156 19.328125 -3.296875 C 18.378906 -2.066406 17.195312 -1.085938 15.78125 -0.359375 C 14.363281 0.367188 12.722656 0.734375 10.859375 0.734375 Z M 12.984375 -3.96875 C 13.765625 -3.96875 14.566406 -4.109375 15.390625 -4.390625 C 16.210938 -4.671875 17.023438 -5.09375 17.828125 -5.65625 C 18.628906 -6.21875 19.363281 -6.941406 20.03125 -7.828125 C 20.707031 -8.722656 21.285156 -9.789062 21.765625 -11.03125 L 21.765625 -15.953125 L 23.171875 -15.734375 C 22.578125 -15.171875 21.800781 -14.738281 20.84375 -14.4375 C 19.894531 -14.144531 18.859375 -13.910156 17.734375 -13.734375 C 16.617188 -13.566406 15.507812 -13.378906 14.40625 -13.171875 C 13.3125 -12.972656 12.304688 -12.695312 11.390625 -12.34375 C 10.472656 -11.988281 9.742188 -11.484375 9.203125 -10.828125 C 8.660156 -10.171875 8.390625 -9.285156 8.390625 -8.171875 C 8.390625 -6.828125 8.804688 -5.789062 9.640625 -5.0625 C 10.484375 -4.332031 11.597656 -3.96875 12.984375 -3.96875 Z M 12.984375 -3.96875 "/></g></g></g><g fill="#ffffff" fill-opacity="1"><g transform="translate(405.4098, 712.390551)"><g><path d="M 4.03125 0 L 4.03125 -29.109375 L 9.296875 -29.109375 L 8.953125 -19.703125 L 9.90625 -19.703125 C 10.394531 -22.128906 11.101562 -24.085938 12.03125 -25.578125 C 12.96875 -27.066406 14.113281 -28.144531 15.46875 -28.8125 C 16.832031 -29.488281 18.375 -29.828125 20.09375 -29.828125 C 21.84375 -29.828125 23.304688 -29.53125 24.484375 -28.9375 C 25.660156 -28.34375 26.613281 -27.539062 27.34375 -26.53125 C 28.070312 -25.519531 28.628906 -24.398438 29.015625 -23.171875 C 29.410156 -21.941406 29.679688 -20.671875 29.828125 -19.359375 C 29.984375 -18.054688 30.0625 -16.804688 30.0625 -15.609375 L 30.0625 0 L 23.953125 0 L 23.953125 -14.828125 C 23.953125 -15.578125 23.914062 -16.5 23.84375 -17.59375 C 23.769531 -18.695312 23.546875 -19.769531 23.171875 -20.8125 C 22.796875 -21.863281 22.21875 -22.75 21.4375 -23.46875 C 20.65625 -24.195312 19.554688 -24.5625 18.140625 -24.5625 C 16.453125 -24.5625 15.019531 -24.03125 13.84375 -22.96875 C 12.675781 -21.90625 11.785156 -20.488281 11.171875 -18.71875 C 10.554688 -16.945312 10.207031 -14.976562 10.125 -12.8125 L 10.125 0 Z M 4.03125 0 "/></g></g></g><g fill="#ffffff" fill-opacity="1"><g transform="translate(439.212387, 712.390551)"><g><path d="M 14.4375 0.734375 C 11.976562 0.734375 9.859375 0.0976562 8.078125 -1.171875 C 6.304688 -2.441406 4.945312 -4.222656 4 -6.515625 C 3.050781 -8.816406 2.578125 -11.492188 2.578125 -14.546875 C 2.578125 -17.535156 3.023438 -20.175781 3.921875 -22.46875 C 4.816406 -24.757812 6.128906 -26.550781 7.859375 -27.84375 C 9.597656 -29.132812 11.71875 -29.78125 14.21875 -29.78125 C 16.195312 -29.78125 17.847656 -29.378906 19.171875 -28.578125 C 20.492188 -27.773438 21.554688 -26.671875 22.359375 -25.265625 C 23.160156 -23.867188 23.765625 -22.273438 24.171875 -20.484375 L 25.234375 -20.484375 C 25.054688 -21.640625 24.875 -22.8125 24.6875 -24 C 24.5 -25.195312 24.347656 -26.347656 24.234375 -27.453125 C 24.117188 -28.554688 24.0625 -29.535156 24.0625 -30.390625 L 24.0625 -39.34375 L 30.21875 -39.34375 L 30.21875 0 L 24.90625 0 L 25.125 -8.171875 L 24.171875 -8.171875 C 23.722656 -6.335938 23.085938 -4.75 22.265625 -3.40625 C 21.453125 -2.070312 20.390625 -1.046875 19.078125 -0.328125 C 17.773438 0.378906 16.226562 0.734375 14.4375 0.734375 Z M 16.125 -4.421875 C 17.382812 -4.421875 18.519531 -4.71875 19.53125 -5.3125 C 20.539062 -5.914062 21.378906 -6.703125 22.046875 -7.671875 C 22.722656 -8.640625 23.238281 -9.691406 23.59375 -10.828125 C 23.945312 -11.960938 24.125 -13.035156 24.125 -14.046875 L 24.125 -14.828125 C 24.125 -15.578125 24.019531 -16.390625 23.8125 -17.265625 C 23.601562 -18.140625 23.296875 -19.015625 22.890625 -19.890625 C 22.484375 -20.773438 21.953125 -21.570312 21.296875 -22.28125 C 20.640625 -22.988281 19.878906 -23.554688 19.015625 -23.984375 C 18.160156 -24.410156 17.195312 -24.625 16.125 -24.625 C 14.59375 -24.625 13.285156 -24.1875 12.203125 -23.3125 C 11.117188 -22.4375 10.296875 -21.234375 9.734375 -19.703125 C 9.179688 -18.171875 8.90625 -16.414062 8.90625 -14.4375 C 8.90625 -12.425781 9.191406 -10.664062 9.765625 -9.15625 C 10.347656 -7.644531 11.175781 -6.476562 12.25 -5.65625 C 13.332031 -4.832031 14.625 -4.421875 16.125 -4.421875 Z M 16.125 -4.421875 "/></g></g></g><g fill="#ffffff" fill-opacity="1"><g transform="translate(473.462676, 712.390551)"><g><path d="M 16.84375 0.734375 C 14.007812 0.734375 11.519531 0.132812 9.375 -1.0625 C 7.226562 -2.257812 5.546875 -3.992188 4.328125 -6.265625 C 3.117188 -8.546875 2.515625 -11.34375 2.515625 -14.65625 C 2.515625 -18.050781 3.140625 -20.867188 4.390625 -23.109375 C 5.640625 -25.347656 7.335938 -27.023438 9.484375 -28.140625 C 11.628906 -29.265625 14.046875 -29.828125 16.734375 -29.828125 C 19.492188 -29.828125 21.957031 -29.25 24.125 -28.09375 C 26.289062 -26.9375 27.988281 -25.21875 29.21875 -22.9375 C 30.445312 -20.664062 31.0625 -17.832031 31.0625 -14.4375 C 31.0625 -11.082031 30.445312 -8.273438 29.21875 -6.015625 C 27.988281 -3.753906 26.289062 -2.0625 24.125 -0.9375 C 21.957031 0.175781 19.53125 0.734375 16.84375 0.734375 Z M 17.015625 -4.078125 C 17.984375 -4.078125 18.929688 -4.242188 19.859375 -4.578125 C 20.796875 -4.921875 21.644531 -5.472656 22.40625 -6.234375 C 23.175781 -7.003906 23.796875 -8.039062 24.265625 -9.34375 C 24.734375 -10.65625 24.96875 -12.28125 24.96875 -14.21875 C 24.96875 -16.195312 24.722656 -17.863281 24.234375 -19.21875 C 23.742188 -20.582031 23.097656 -21.679688 22.296875 -22.515625 C 21.492188 -23.359375 20.585938 -23.957031 19.578125 -24.3125 C 18.578125 -24.664062 17.570312 -24.84375 16.5625 -24.84375 C 15.632812 -24.84375 14.703125 -24.675781 13.765625 -24.34375 C 12.835938 -24.007812 11.988281 -23.46875 11.21875 -22.71875 C 10.457031 -21.976562 9.832031 -20.953125 9.34375 -19.640625 C 8.863281 -18.335938 8.625 -16.71875 8.625 -14.78125 C 8.625 -12.800781 8.863281 -11.128906 9.34375 -9.765625 C 9.832031 -8.398438 10.476562 -7.296875 11.28125 -6.453125 C 12.082031 -5.617188 12.976562 -5.015625 13.96875 -4.640625 C 14.957031 -4.265625 15.972656 -4.078125 17.015625 -4.078125 Z M 17.015625 -4.078125 "/></g></g></g><g fill="#ffffff" fill-opacity="1"><g transform="translate(507.041413, 712.390551)"><g><path d="M 4.03125 0 L 4.03125 -29.109375 L 9.296875 -29.109375 L 8.953125 -19.703125 L 9.90625 -19.703125 C 10.394531 -22.128906 11.101562 -24.085938 12.03125 -25.578125 C 12.96875 -27.066406 14.113281 -28.144531 15.46875 -28.8125 C 16.832031 -29.488281 18.375 -29.828125 20.09375 -29.828125 C 21.84375 -29.828125 23.304688 -29.53125 24.484375 -28.9375 C 25.660156 -28.34375 26.613281 -27.539062 27.34375 -26.53125 C 28.070312 -25.519531 28.628906 -24.398438 29.015625 -23.171875 C 29.410156 -21.941406 29.679688 -20.671875 29.828125 -19.359375 C 29.984375 -18.054688 30.0625 -16.804688 30.0625 -15.609375 L 30.0625 0 L 23.953125 0 L 23.953125 -14.828125 C 23.953125 -15.578125 23.914062 -16.5 23.84375 -17.59375 C 23.769531 -18.695312 23.546875 -19.769531 23.171875 -20.8125 C 22.796875 -21.863281 22.21875 -22.75 21.4375 -23.46875 C 20.65625 -24.195312 19.554688 -24.5625 18.140625 -24.5625 C 16.453125 -24.5625 15.019531 -24.03125 13.84375 -22.96875 C 12.675781 -21.90625 11.785156 -20.488281 11.171875 -18.71875 C 10.554688 -16.945312 10.207031 -14.976562 10.125 -12.8125 L 10.125 0 Z M 4.03125 0 "/></g></g></g><g fill="#ffffff" fill-opacity="1"><g transform="translate(540.732064, 712.390551)"><g/></g></g><g fill="#ffffff" fill-opacity="1"><g transform="translate(554.331456, 712.390551)"><g><path d="M 4.03125 0 L 4.03125 -29.109375 L 9.234375 -29.109375 L 8.90625 -19.703125 L 9.796875 -19.703125 C 10.273438 -21.972656 10.9375 -23.851562 11.78125 -25.34375 C 12.625 -26.84375 13.648438 -27.960938 14.859375 -28.703125 C 16.066406 -29.453125 17.472656 -29.828125 19.078125 -29.828125 C 20.460938 -29.828125 21.65625 -29.570312 22.65625 -29.0625 C 23.664062 -28.5625 24.5 -27.863281 25.15625 -26.96875 C 25.8125 -26.082031 26.316406 -25.019531 26.671875 -23.78125 C 27.023438 -22.550781 27.21875 -21.226562 27.25 -19.8125 L 28.09375 -19.8125 C 28.539062 -22.050781 29.203125 -23.90625 30.078125 -25.375 C 30.960938 -26.851562 32.054688 -27.960938 33.359375 -28.703125 C 34.660156 -29.453125 36.132812 -29.828125 37.78125 -29.828125 C 39.570312 -29.828125 41.046875 -29.453125 42.203125 -28.703125 C 43.359375 -27.960938 44.257812 -27.015625 44.90625 -25.859375 C 45.5625 -24.703125 46.046875 -23.46875 46.359375 -22.15625 C 46.679688 -20.851562 46.878906 -19.625 46.953125 -18.46875 C 47.023438 -17.3125 47.0625 -16.378906 47.0625 -15.671875 L 47.0625 0 L 40.96875 0 L 40.96875 -14.78125 C 40.96875 -15.519531 40.929688 -16.429688 40.859375 -17.515625 C 40.785156 -18.597656 40.578125 -19.671875 40.234375 -20.734375 C 39.898438 -21.796875 39.378906 -22.679688 38.671875 -23.390625 C 37.960938 -24.097656 36.972656 -24.453125 35.703125 -24.453125 C 34.359375 -24.453125 33.171875 -23.984375 32.140625 -23.046875 C 31.117188 -22.117188 30.289062 -20.820312 29.65625 -19.15625 C 29.03125 -17.5 28.640625 -15.59375 28.484375 -13.4375 L 28.484375 0 L 22.5625 0 L 22.5625 -14.109375 C 22.5625 -14.847656 22.519531 -15.796875 22.4375 -16.953125 C 22.363281 -18.109375 22.175781 -19.253906 21.875 -20.390625 C 21.582031 -21.535156 21.070312 -22.5 20.34375 -23.28125 C 19.613281 -24.0625 18.578125 -24.453125 17.234375 -24.453125 C 15.859375 -24.453125 14.65625 -23.96875 13.625 -23 C 12.601562 -22.03125 11.789062 -20.707031 11.1875 -19.03125 C 10.59375 -17.351562 10.238281 -15.429688 10.125 -13.265625 L 10.125 0 Z M 4.03125 0 "/></g></g></g><g fill="#ffffff" fill-opacity="1"><g transform="translate(604.979369, 712.390551)"><g><path d="M 16.90625 0.734375 C 14.59375 0.734375 12.539062 0.390625 10.75 -0.296875 C 8.957031 -0.992188 7.441406 -1.984375 6.203125 -3.265625 C 4.972656 -4.554688 4.050781 -6.109375 3.4375 -7.921875 C 2.820312 -9.734375 2.515625 -11.773438 2.515625 -14.046875 C 2.515625 -16.328125 2.820312 -18.425781 3.4375 -20.34375 C 4.050781 -22.269531 4.945312 -23.941406 6.125 -25.359375 C 7.300781 -26.773438 8.753906 -27.875 10.484375 -28.65625 C 12.222656 -29.4375 14.210938 -29.828125 16.453125 -29.828125 C 18.472656 -29.828125 20.289062 -29.488281 21.90625 -28.8125 C 23.53125 -28.144531 24.898438 -27.128906 26.015625 -25.765625 C 27.140625 -24.410156 27.972656 -22.710938 28.515625 -20.671875 C 29.054688 -18.640625 29.269531 -16.28125 29.15625 -13.59375 L 6.375 -13.4375 L 6.375 -17.234375 L 25.46875 -17.40625 L 23.453125 -15.109375 C 23.640625 -17.273438 23.441406 -19.082031 22.859375 -20.53125 C 22.285156 -21.988281 21.4375 -23.070312 20.3125 -23.78125 C 19.195312 -24.488281 17.910156 -24.84375 16.453125 -24.84375 C 14.816406 -24.84375 13.390625 -24.421875 12.171875 -23.578125 C 10.960938 -22.742188 10.03125 -21.523438 9.375 -19.921875 C 8.71875 -18.316406 8.390625 -16.394531 8.390625 -14.15625 C 8.390625 -10.800781 9.125 -8.273438 10.59375 -6.578125 C 12.070312 -4.878906 14.191406 -4.03125 16.953125 -4.03125 C 18.109375 -4.03125 19.109375 -4.171875 19.953125 -4.453125 C 20.796875 -4.734375 21.492188 -5.125 22.046875 -5.625 C 22.609375 -6.125 23.054688 -6.703125 23.390625 -7.359375 C 23.734375 -8.015625 23.992188 -8.695312 24.171875 -9.40625 L 29.546875 -8.234375 C 29.210938 -6.890625 28.71875 -5.664062 28.0625 -4.5625 C 27.414062 -3.457031 26.566406 -2.515625 25.515625 -1.734375 C 24.472656 -0.953125 23.242188 -0.347656 21.828125 0.078125 C 20.410156 0.515625 18.769531 0.734375 16.90625 0.734375 Z M 16.90625 0.734375 "/></g></g></g><g fill="#ffffff" fill-opacity="1"><g transform="translate(636.655298, 712.390551)"><g><path d="M 4.03125 0 L 4.03125 -29.109375 L 9.296875 -29.109375 L 8.953125 -19.703125 L 9.90625 -19.703125 C 10.394531 -22.128906 11.101562 -24.085938 12.03125 -25.578125 C 12.96875 -27.066406 14.113281 -28.144531 15.46875 -28.8125 C 16.832031 -29.488281 18.375 -29.828125 20.09375 -29.828125 C 21.84375 -29.828125 23.304688 -29.53125 24.484375 -28.9375 C 25.660156 -28.34375 26.613281 -27.539062 27.34375 -26.53125 C 28.070312 -25.519531 28.628906 -24.398438 29.015625 -23.171875 C 29.410156 -21.941406 29.679688 -20.671875 29.828125 -19.359375 C 29.984375 -18.054688 30.0625 -16.804688 30.0625 -15.609375 L 30.0625 0 L 23.953125 0 L 23.953125 -14.828125 C 23.953125 -15.578125 23.914062 -16.5 23.84375 -17.59375 C 23.769531 -18.695312 23.546875 -19.769531 23.171875 -20.8125 C 22.796875 -21.863281 22.21875 -22.75 21.4375 -23.46875 C 20.65625 -24.195312 19.554688 -24.5625 18.140625 -24.5625 C 16.453125 -24.5625 15.019531 -24.03125 13.84375 -22.96875 C 12.675781 -21.90625 11.785156 -20.488281 11.171875 -18.71875 C 10.554688 -16.945312 10.207031 -14.976562 10.125 -12.8125 L 10.125 0 Z M 4.03125 0 "/></g></g></g><g fill="#ffffff" fill-opacity="1"><g transform="translate(670.234035, 712.390551)"><g><path d="M 13.71875 0.609375 C 12.332031 0.609375 11.109375 0.421875 10.046875 0.046875 C 8.984375 -0.316406 8.097656 -0.890625 7.390625 -1.671875 C 6.679688 -2.460938 6.148438 -3.453125 5.796875 -4.640625 C 5.441406 -5.835938 5.265625 -7.273438 5.265625 -8.953125 L 5.265625 -24.125 L 1 -24.125 L 1.0625 -29.046875 L 3.6875 -29.046875 C 4.738281 -29.046875 5.503906 -29.234375 5.984375 -29.609375 C 6.472656 -29.984375 6.773438 -30.597656 6.890625 -31.453125 L 7.5 -35.59375 L 11.078125 -35.59375 L 11.078125 -29.109375 L 19.078125 -29.109375 L 19.078125 -24.015625 L 11.078125 -24.015625 L 11.078125 -9.125 C 11.078125 -7.550781 11.453125 -6.472656 12.203125 -5.890625 C 12.953125 -5.316406 13.90625 -5.03125 15.0625 -5.03125 C 15.769531 -5.03125 16.476562 -5.113281 17.1875 -5.28125 C 17.894531 -5.457031 18.582031 -5.785156 19.25 -6.265625 L 19.25 -0.390625 C 18.164062 -0.015625 17.15625 0.242188 16.21875 0.390625 C 15.289062 0.535156 14.457031 0.609375 13.71875 0.609375 Z M 13.71875 0.609375 "/></g></g></g><g fill="#ffffff" fill-opacity="1"><g transform="translate(691.276697, 712.390551)"><g><path d="M 10.859375 0.734375 C 9.253906 0.734375 7.816406 0.425781 6.546875 -0.1875 C 5.273438 -0.8125 4.265625 -1.71875 3.515625 -2.90625 C 2.773438 -4.101562 2.40625 -5.597656 2.40625 -7.390625 C 2.40625 -9.328125 2.832031 -10.882812 3.6875 -12.0625 C 4.550781 -13.238281 5.65625 -14.148438 7 -14.796875 C 8.34375 -15.453125 9.796875 -15.925781 11.359375 -16.21875 C 12.929688 -16.519531 14.441406 -16.765625 15.890625 -16.953125 C 17.347656 -17.179688 18.492188 -17.390625 19.328125 -17.578125 C 20.171875 -17.765625 20.78125 -18.0625 21.15625 -18.46875 C 21.53125 -18.875 21.71875 -19.453125 21.71875 -20.203125 C 21.71875 -21.097656 21.507812 -21.898438 21.09375 -22.609375 C 20.6875 -23.316406 20.082031 -23.882812 19.28125 -24.3125 C 18.476562 -24.75 17.441406 -24.96875 16.171875 -24.96875 C 15.054688 -24.96875 13.972656 -24.769531 12.921875 -24.375 C 11.878906 -23.976562 10.972656 -23.359375 10.203125 -22.515625 C 9.441406 -21.679688 8.929688 -20.554688 8.671875 -19.140625 L 3.1875 -20.828125 C 3.519531 -22.273438 4.0625 -23.554688 4.8125 -24.671875 C 5.5625 -25.796875 6.484375 -26.738281 7.578125 -27.5 C 8.679688 -28.269531 9.953125 -28.847656 11.390625 -29.234375 C 12.828125 -29.628906 14.40625 -29.828125 16.125 -29.828125 C 18.4375 -29.828125 20.335938 -29.507812 21.828125 -28.875 C 23.316406 -28.238281 24.488281 -27.359375 25.34375 -26.234375 C 26.207031 -25.117188 26.816406 -23.832031 27.171875 -22.375 C 27.523438 -20.925781 27.703125 -19.363281 27.703125 -17.6875 L 27.703125 -11.859375 C 27.703125 -10.671875 27.726562 -9.382812 27.78125 -8 C 27.84375 -6.625 27.921875 -5.253906 28.015625 -3.890625 C 28.109375 -2.523438 28.207031 -1.226562 28.3125 0 L 22.78125 0 C 22.707031 -1.15625 22.625 -2.347656 22.53125 -3.578125 C 22.4375 -4.804688 22.367188 -6.039062 22.328125 -7.28125 L 21.546875 -7.28125 C 21.023438 -5.863281 20.285156 -4.535156 19.328125 -3.296875 C 18.378906 -2.066406 17.195312 -1.085938 15.78125 -0.359375 C 14.363281 0.367188 12.722656 0.734375 10.859375 0.734375 Z M 12.984375 -3.96875 C 13.765625 -3.96875 14.566406 -4.109375 15.390625 -4.390625 C 16.210938 -4.671875 17.023438 -5.09375 17.828125 -5.65625 C 18.628906 -6.21875 19.363281 -6.941406 20.03125 -7.828125 C 20.707031 -8.722656 21.285156 -9.789062 21.765625 -11.03125 L 21.765625 -15.953125 L 23.171875 -15.734375 C 22.578125 -15.171875 21.800781 -14.738281 20.84375 -14.4375 C 19.894531 -14.144531 18.859375 -13.910156 17.734375 -13.734375 C 16.617188 -13.566406 15.507812 -13.378906 14.40625 -13.171875 C 13.3125 -12.972656 12.304688 -12.695312 11.390625 -12.34375 C 10.472656 -11.988281 9.742188 -11.484375 9.203125 -10.828125 C 8.660156 -10.171875 8.390625 -9.285156 8.390625 -8.171875 C 8.390625 -6.828125 8.804688 -5.789062 9.640625 -5.0625 C 10.484375 -4.332031 11.597656 -3.96875 12.984375 -3.96875 Z M 12.984375 -3.96875 "/></g></g></g><g fill="#ffffff" fill-opacity="1"><g transform="translate(722.728799, 712.390551)"><g><path d="M 4.03125 0 L 4.03125 -39.34375 L 10.078125 -39.34375 L 10.078125 0 Z M 4.03125 0 "/></g></g></g><g fill="#ffffff" fill-opacity="1"><g transform="translate(68.955018, 790.352046)"><g><path d="M 8.734375 0 L 1.171875 -29.109375 L 7.5 -29.109375 L 12.65625 -5.03125 L 13.546875 -5.03125 L 19.25 -29.109375 L 26.859375 -29.109375 L 32.625 -5.03125 L 33.46875 -5.03125 L 38.671875 -29.109375 L 44.890625 -29.109375 L 37.21875 0 L 28.828125 0 L 23.28125 -23.90625 L 22.609375 -23.90625 L 17.1875 0 Z M 8.734375 0 "/></g></g></g><g fill="#ffffff" fill-opacity="1"><g transform="translate(114.678029, 790.352046)"><g><path d="M 16.90625 0.734375 C 14.59375 0.734375 12.539062 0.390625 10.75 -0.296875 C 8.957031 -0.992188 7.441406 -1.984375 6.203125 -3.265625 C 4.972656 -4.554688 4.050781 -6.109375 3.4375 -7.921875 C 2.820312 -9.734375 2.515625 -11.773438 2.515625 -14.046875 C 2.515625 -16.328125 2.820312 -18.425781 3.4375 -20.34375 C 4.050781 -22.269531 4.945312 -23.941406 6.125 -25.359375 C 7.300781 -26.773438 8.753906 -27.875 10.484375 -28.65625 C 12.222656 -29.4375 14.210938 -29.828125 16.453125 -29.828125 C 18.472656 -29.828125 20.289062 -29.488281 21.90625 -28.8125 C 23.53125 -28.144531 24.898438 -27.128906 26.015625 -25.765625 C 27.140625 -24.410156 27.972656 -22.710938 28.515625 -20.671875 C 29.054688 -18.640625 29.269531 -16.28125 29.15625 -13.59375 L 6.375 -13.4375 L 6.375 -17.234375 L 25.46875 -17.40625 L 23.453125 -15.109375 C 23.640625 -17.273438 23.441406 -19.082031 22.859375 -20.53125 C 22.285156 -21.988281 21.4375 -23.070312 20.3125 -23.78125 C 19.195312 -24.488281 17.910156 -24.84375 16.453125 -24.84375 C 14.816406 -24.84375 13.390625 -24.421875 12.171875 -23.578125 C 10.960938 -22.742188 10.03125 -21.523438 9.375 -19.921875 C 8.71875 -18.316406 8.390625 -16.394531 8.390625 -14.15625 C 8.390625 -10.800781 9.125 -8.273438 10.59375 -6.578125 C 12.070312 -4.878906 14.191406 -4.03125 16.953125 -4.03125 C 18.109375 -4.03125 19.109375 -4.171875 19.953125 -4.453125 C 20.796875 -4.734375 21.492188 -5.125 22.046875 -5.625 C 22.609375 -6.125 23.054688 -6.703125 23.390625 -7.359375 C 23.734375 -8.015625 23.992188 -8.695312 24.171875 -9.40625 L 29.546875 -8.234375 C 29.210938 -6.890625 28.71875 -5.664062 28.0625 -4.5625 C 27.414062 -3.457031 26.566406 -2.515625 25.515625 -1.734375 C 24.472656 -0.953125 23.242188 -0.347656 21.828125 0.078125 C 20.410156 0.515625 18.769531 0.734375 16.90625 0.734375 Z M 16.90625 0.734375 "/></g></g></g><g fill="#ffffff" fill-opacity="1"><g transform="translate(146.353958, 790.352046)"><g><path d="M 4.03125 0 L 4.03125 -39.34375 L 10.078125 -39.34375 L 10.078125 0 Z M 4.03125 0 "/></g></g></g><g fill="#ffffff" fill-opacity="1"><g transform="translate(160.45702, 790.352046)"><g><path d="M 4.03125 0 L 4.03125 -39.34375 L 10.078125 -39.34375 L 10.078125 0 Z M 4.03125 0 "/></g></g></g><g fill="#ffffff" fill-opacity="1"><g transform="translate(174.560082, 790.352046)"><g><path d="M 4.03125 0 L 4.03125 -29.109375 L 9.296875 -29.109375 L 8.953125 -19.703125 L 9.90625 -19.703125 C 10.394531 -22.128906 11.101562 -24.085938 12.03125 -25.578125 C 12.96875 -27.066406 14.113281 -28.144531 15.46875 -28.8125 C 16.832031 -29.488281 18.375 -29.828125 20.09375 -29.828125 C 21.84375 -29.828125 23.304688 -29.53125 24.484375 -28.9375 C 25.660156 -28.34375 26.613281 -27.539062 27.34375 -26.53125 C 28.070312 -25.519531 28.628906 -24.398438 29.015625 -23.171875 C 29.410156 -21.941406 29.679688 -20.671875 29.828125 -19.359375 C 29.984375 -18.054688 30.0625 -16.804688 30.0625 -15.609375 L 30.0625 0 L 23.953125 0 L 23.953125 -14.828125 C 23.953125 -15.578125 23.914062 -16.5 23.84375 -17.59375 C 23.769531 -18.695312 23.546875 -19.769531 23.171875 -20.8125 C 22.796875 -21.863281 22.21875 -22.75 21.4375 -23.46875 C 20.65625 -24.195312 19.554688 -24.5625 18.140625 -24.5625 C 16.453125 -24.5625 15.019531 -24.03125 13.84375 -22.96875 C 12.675781 -21.90625 11.785156 -20.488281 11.171875 -18.71875 C 10.554688 -16.945312 10.207031 -14.976562 10.125 -12.8125 L 10.125 0 Z M 4.03125 0 "/></g></g></g><g fill="#ffffff" fill-opacity="1"><g transform="translate(208.250733, 790.352046)"><g><path d="M 16.90625 0.734375 C 14.59375 0.734375 12.539062 0.390625 10.75 -0.296875 C 8.957031 -0.992188 7.441406 -1.984375 6.203125 -3.265625 C 4.972656 -4.554688 4.050781 -6.109375 3.4375 -7.921875 C 2.820312 -9.734375 2.515625 -11.773438 2.515625 -14.046875 C 2.515625 -16.328125 2.820312 -18.425781 3.4375 -20.34375 C 4.050781 -22.269531 4.945312 -23.941406 6.125 -25.359375 C 7.300781 -26.773438 8.753906 -27.875 10.484375 -28.65625 C 12.222656 -29.4375 14.210938 -29.828125 16.453125 -29.828125 C 18.472656 -29.828125 20.289062 -29.488281 21.90625 -28.8125 C 23.53125 -28.144531 24.898438 -27.128906 26.015625 -25.765625 C 27.140625 -24.410156 27.972656 -22.710938 28.515625 -20.671875 C 29.054688 -18.640625 29.269531 -16.28125 29.15625 -13.59375 L 6.375 -13.4375 L 6.375 -17.234375 L 25.46875 -17.40625 L 23.453125 -15.109375 C 23.640625 -17.273438 23.441406 -19.082031 22.859375 -20.53125 C 22.285156 -21.988281 21.4375 -23.070312 20.3125 -23.78125 C 19.195312 -24.488281 17.910156 -24.84375 16.453125 -24.84375 C 14.816406 -24.84375 13.390625 -24.421875 12.171875 -23.578125 C 10.960938 -22.742188 10.03125 -21.523438 9.375 -19.921875 C 8.71875 -18.316406 8.390625 -16.394531 8.390625 -14.15625 C 8.390625 -10.800781 9.125 -8.273438 10.59375 -6.578125 C 12.070312 -4.878906 14.191406 -4.03125 16.953125 -4.03125 C 18.109375 -4.03125 19.109375 -4.171875 19.953125 -4.453125 C 20.796875 -4.734375 21.492188 -5.125 22.046875 -5.625 C 22.609375 -6.125 23.054688 -6.703125 23.390625 -7.359375 C 23.734375 -8.015625 23.992188 -8.695312 24.171875 -9.40625 L 29.546875 -8.234375 C 29.210938 -6.890625 28.71875 -5.664062 28.0625 -4.5625 C 27.414062 -3.457031 26.566406 -2.515625 25.515625 -1.734375 C 24.472656 -0.953125 23.242188 -0.347656 21.828125 0.078125 C 20.410156 0.515625 18.769531 0.734375 16.90625 0.734375 Z M 16.90625 0.734375 "/></g></g></g><g fill="#ffffff" fill-opacity="1"><g transform="translate(240.262472, 790.352046)"><g><path d="M 15.171875 0.734375 C 13.191406 0.734375 11.40625 0.523438 9.8125 0.109375 C 8.226562 -0.296875 6.894531 -0.878906 5.8125 -1.640625 C 4.738281 -2.410156 3.890625 -3.34375 3.265625 -4.4375 C 2.648438 -5.539062 2.304688 -6.785156 2.234375 -8.171875 L 7.21875 -9.6875 C 7.21875 -8.53125 7.550781 -7.519531 8.21875 -6.65625 C 8.894531 -5.800781 9.847656 -5.140625 11.078125 -4.671875 C 12.304688 -4.203125 13.78125 -3.96875 15.5 -3.96875 C 17.550781 -3.96875 19.132812 -4.300781 20.25 -4.96875 C 21.375 -5.644531 21.9375 -6.582031 21.9375 -7.78125 C 21.9375 -8.675781 21.628906 -9.382812 21.015625 -9.90625 C 20.398438 -10.425781 19.53125 -10.851562 18.40625 -11.1875 C 17.289062 -11.53125 15.96875 -11.847656 14.4375 -12.140625 C 13.019531 -12.441406 11.628906 -12.785156 10.265625 -13.171875 C 8.910156 -13.566406 7.660156 -14.082031 6.515625 -14.71875 C 5.378906 -15.351562 4.46875 -16.179688 3.78125 -17.203125 C 3.09375 -18.234375 2.75 -19.53125 2.75 -21.09375 C 2.75 -22.882812 3.210938 -24.425781 4.140625 -25.71875 C 5.078125 -27.007812 6.429688 -28.015625 8.203125 -28.734375 C 9.972656 -29.460938 12.085938 -29.828125 14.546875 -29.828125 C 16.941406 -29.828125 19.003906 -29.472656 20.734375 -28.765625 C 22.472656 -28.054688 23.863281 -27.054688 24.90625 -25.765625 C 25.945312 -24.484375 26.5625 -22.945312 26.75 -21.15625 L 21.609375 -19.703125 C 21.566406 -20.890625 21.238281 -21.882812 20.625 -22.6875 C 20.007812 -23.5 19.175781 -24.097656 18.125 -24.484375 C 17.082031 -24.878906 15.851562 -25.078125 14.4375 -25.078125 C 12.570312 -25.078125 11.113281 -24.738281 10.0625 -24.0625 C 9.019531 -23.394531 8.5 -22.484375 8.5 -21.328125 C 8.5 -20.429688 8.828125 -19.710938 9.484375 -19.171875 C 10.140625 -18.628906 11.023438 -18.195312 12.140625 -17.875 C 13.265625 -17.5625 14.570312 -17.253906 16.0625 -16.953125 C 17.519531 -16.660156 18.9375 -16.328125 20.3125 -15.953125 C 21.695312 -15.578125 22.9375 -15.082031 24.03125 -14.46875 C 25.132812 -13.851562 26.015625 -13.03125 26.671875 -12 C 27.328125 -10.976562 27.65625 -9.679688 27.65625 -8.109375 C 27.65625 -6.210938 27.148438 -4.597656 26.140625 -3.265625 C 25.128906 -1.941406 23.691406 -0.941406 21.828125 -0.265625 C 19.960938 0.398438 17.742188 0.734375 15.171875 0.734375 Z M 15.171875 0.734375 "/></g></g></g><g fill="#ffffff" fill-opacity="1"><g transform="translate(270.427395, 790.352046)"><g><path d="M 15.171875 0.734375 C 13.191406 0.734375 11.40625 0.523438 9.8125 0.109375 C 8.226562 -0.296875 6.894531 -0.878906 5.8125 -1.640625 C 4.738281 -2.410156 3.890625 -3.34375 3.265625 -4.4375 C 2.648438 -5.539062 2.304688 -6.785156 2.234375 -8.171875 L 7.21875 -9.6875 C 7.21875 -8.53125 7.550781 -7.519531 8.21875 -6.65625 C 8.894531 -5.800781 9.847656 -5.140625 11.078125 -4.671875 C 12.304688 -4.203125 13.78125 -3.96875 15.5 -3.96875 C 17.550781 -3.96875 19.132812 -4.300781 20.25 -4.96875 C 21.375 -5.644531 21.9375 -6.582031 21.9375 -7.78125 C 21.9375 -8.675781 21.628906 -9.382812 21.015625 -9.90625 C 20.398438 -10.425781 19.53125 -10.851562 18.40625 -11.1875 C 17.289062 -11.53125 15.96875 -11.847656 14.4375 -12.140625 C 13.019531 -12.441406 11.628906 -12.785156 10.265625 -13.171875 C 8.910156 -13.566406 7.660156 -14.082031 6.515625 -14.71875 C 5.378906 -15.351562 4.46875 -16.179688 3.78125 -17.203125 C 3.09375 -18.234375 2.75 -19.53125 2.75 -21.09375 C 2.75 -22.882812 3.210938 -24.425781 4.140625 -25.71875 C 5.078125 -27.007812 6.429688 -28.015625 8.203125 -28.734375 C 9.972656 -29.460938 12.085938 -29.828125 14.546875 -29.828125 C 16.941406 -29.828125 19.003906 -29.472656 20.734375 -28.765625 C 22.472656 -28.054688 23.863281 -27.054688 24.90625 -25.765625 C 25.945312 -24.484375 26.5625 -22.945312 26.75 -21.15625 L 21.609375 -19.703125 C 21.566406 -20.890625 21.238281 -21.882812 20.625 -22.6875 C 20.007812 -23.5 19.175781 -24.097656 18.125 -24.484375 C 17.082031 -24.878906 15.851562 -25.078125 14.4375 -25.078125 C 12.570312 -25.078125 11.113281 -24.738281 10.0625 -24.0625 C 9.019531 -23.394531 8.5 -22.484375 8.5 -21.328125 C 8.5 -20.429688 8.828125 -19.710938 9.484375 -19.171875 C 10.140625 -18.628906 11.023438 -18.195312 12.140625 -17.875 C 13.265625 -17.5625 14.570312 -17.253906 16.0625 -16.953125 C 17.519531 -16.660156 18.9375 -16.328125 20.3125 -15.953125 C 21.695312 -15.578125 22.9375 -15.082031 24.03125 -14.46875 C 25.132812 -13.851562 26.015625 -13.03125 26.671875 -12 C 27.328125 -10.976562 27.65625 -9.679688 27.65625 -8.109375 C 27.65625 -6.210938 27.148438 -4.597656 26.140625 -3.265625 C 25.128906 -1.941406 23.691406 -0.941406 21.828125 -0.265625 C 19.960938 0.398438 17.742188 0.734375 15.171875 0.734375 Z M 15.171875 0.734375 "/></g></g></g><g fill="#ffffff" fill-opacity="1"><g transform="translate(300.14456, 790.352046)"><g/></g></g><g fill="#ffffff" fill-opacity="1"><g transform="translate(313.743952, 790.352046)"><g><path d="M 10.859375 0.734375 C 9.253906 0.734375 7.816406 0.425781 6.546875 -0.1875 C 5.273438 -0.8125 4.265625 -1.71875 3.515625 -2.90625 C 2.773438 -4.101562 2.40625 -5.597656 2.40625 -7.390625 C 2.40625 -9.328125 2.832031 -10.882812 3.6875 -12.0625 C 4.550781 -13.238281 5.65625 -14.148438 7 -14.796875 C 8.34375 -15.453125 9.796875 -15.925781 11.359375 -16.21875 C 12.929688 -16.519531 14.441406 -16.765625 15.890625 -16.953125 C 17.347656 -17.179688 18.492188 -17.390625 19.328125 -17.578125 C 20.171875 -17.765625 20.78125 -18.0625 21.15625 -18.46875 C 21.53125 -18.875 21.71875 -19.453125 21.71875 -20.203125 C 21.71875 -21.097656 21.507812 -21.898438 21.09375 -22.609375 C 20.6875 -23.316406 20.082031 -23.882812 19.28125 -24.3125 C 18.476562 -24.75 17.441406 -24.96875 16.171875 -24.96875 C 15.054688 -24.96875 13.972656 -24.769531 12.921875 -24.375 C 11.878906 -23.976562 10.972656 -23.359375 10.203125 -22.515625 C 9.441406 -21.679688 8.929688 -20.554688 8.671875 -19.140625 L 3.1875 -20.828125 C 3.519531 -22.273438 4.0625 -23.554688 4.8125 -24.671875 C 5.5625 -25.796875 6.484375 -26.738281 7.578125 -27.5 C 8.679688 -28.269531 9.953125 -28.847656 11.390625 -29.234375 C 12.828125 -29.628906 14.40625 -29.828125 16.125 -29.828125 C 18.4375 -29.828125 20.335938 -29.507812 21.828125 -28.875 C 23.316406 -28.238281 24.488281 -27.359375 25.34375 -26.234375 C 26.207031 -25.117188 26.816406 -23.832031 27.171875 -22.375 C 27.523438 -20.925781 27.703125 -19.363281 27.703125 -17.6875 L 27.703125 -11.859375 C 27.703125 -10.671875 27.726562 -9.382812 27.78125 -8 C 27.84375 -6.625 27.921875 -5.253906 28.015625 -3.890625 C 28.109375 -2.523438 28.207031 -1.226562 28.3125 0 L 22.78125 0 C 22.707031 -1.15625 22.625 -2.347656 22.53125 -3.578125 C 22.4375 -4.804688 22.367188 -6.039062 22.328125 -7.28125 L 21.546875 -7.28125 C 21.023438 -5.863281 20.285156 -4.535156 19.328125 -3.296875 C 18.378906 -2.066406 17.195312 -1.085938 15.78125 -0.359375 C 14.363281 0.367188 12.722656 0.734375 10.859375 0.734375 Z M 12.984375 -3.96875 C 13.765625 -3.96875 14.566406 -4.109375 15.390625 -4.390625 C 16.210938 -4.671875 17.023438 -5.09375 17.828125 -5.65625 C 18.628906 -6.21875 19.363281 -6.941406 20.03125 -7.828125 C 20.707031 -8.722656 21.285156 -9.789062 21.765625 -11.03125 L 21.765625 -15.953125 L 23.171875 -15.734375 C 22.578125 -15.171875 21.800781 -14.738281 20.84375 -14.4375 C 19.894531 -14.144531 18.859375 -13.910156 17.734375 -13.734375 C 16.617188 -13.566406 15.507812 -13.378906 14.40625 -13.171875 C 13.3125 -12.972656 12.304688 -12.695312 11.390625 -12.34375 C 10.472656 -11.988281 9.742188 -11.484375 9.203125 -10.828125 C 8.660156 -10.171875 8.390625 -9.285156 8.390625 -8.171875 C 8.390625 -6.828125 8.804688 -5.789062 9.640625 -5.0625 C 10.484375 -4.332031 11.597656 -3.96875 12.984375 -3.96875 Z M 12.984375 -3.96875 "/></g></g></g><g fill="#ffffff" fill-opacity="1"><g transform="translate(345.196031, 790.352046)"><g><path d="M 4.03125 9.0625 L 4.03125 -29.109375 L 9.34375 -29.109375 L 9.125 -21.265625 L 10.015625 -21.21875 C 10.429688 -23.039062 11.046875 -24.585938 11.859375 -25.859375 C 12.679688 -27.128906 13.734375 -28.109375 15.015625 -28.796875 C 16.304688 -29.484375 17.847656 -29.828125 19.640625 -29.828125 C 22.253906 -29.828125 24.457031 -29.179688 26.25 -27.890625 C 28.039062 -26.609375 29.390625 -24.8125 30.296875 -22.5 C 31.210938 -20.1875 31.671875 -17.519531 31.671875 -14.5 C 31.671875 -11.550781 31.222656 -8.925781 30.328125 -6.625 C 29.429688 -4.332031 28.113281 -2.53125 26.375 -1.21875 C 24.644531 0.0820312 22.515625 0.734375 19.984375 0.734375 C 18.046875 0.734375 16.410156 0.332031 15.078125 -0.46875 C 13.753906 -1.269531 12.691406 -2.351562 11.890625 -3.71875 C 11.085938 -5.082031 10.445312 -6.601562 9.96875 -8.28125 L 9.0625 -8.28125 C 9.25 -7.195312 9.425781 -6.113281 9.59375 -5.03125 C 9.757812 -3.957031 9.890625 -2.894531 9.984375 -1.84375 C 10.078125 -0.800781 10.125 0.203125 10.125 1.171875 L 10.125 9.0625 Z M 18.1875 -4.359375 C 19.71875 -4.359375 21.015625 -4.796875 22.078125 -5.671875 C 23.140625 -6.554688 23.953125 -7.757812 24.515625 -9.28125 C 25.078125 -10.8125 25.359375 -12.566406 25.359375 -14.546875 C 25.359375 -16.597656 25.066406 -18.367188 24.484375 -19.859375 C 23.910156 -21.359375 23.085938 -22.523438 22.015625 -23.359375 C 20.953125 -24.203125 19.660156 -24.625 18.140625 -24.625 C 16.828125 -24.625 15.675781 -24.320312 14.6875 -23.71875 C 13.695312 -23.125 12.863281 -22.351562 12.1875 -21.40625 C 11.519531 -20.457031 11.007812 -19.410156 10.65625 -18.265625 C 10.300781 -17.128906 10.125 -16.019531 10.125 -14.9375 L 10.125 -14.15625 C 10.125 -13.414062 10.226562 -12.601562 10.4375 -11.71875 C 10.644531 -10.84375 10.960938 -9.972656 11.390625 -9.109375 C 11.816406 -8.253906 12.347656 -7.460938 12.984375 -6.734375 C 13.617188 -6.015625 14.375 -5.4375 15.25 -5 C 16.125 -4.570312 17.101562 -4.359375 18.1875 -4.359375 Z M 18.1875 -4.359375 "/></g></g></g><g fill="#ffffff" fill-opacity="1"><g transform="translate(379.44632, 790.352046)"><g><path d="M 4.03125 9.0625 L 4.03125 -29.109375 L 9.34375 -29.109375 L 9.125 -21.265625 L 10.015625 -21.21875 C 10.429688 -23.039062 11.046875 -24.585938 11.859375 -25.859375 C 12.679688 -27.128906 13.734375 -28.109375 15.015625 -28.796875 C 16.304688 -29.484375 17.847656 -29.828125 19.640625 -29.828125 C 22.253906 -29.828125 24.457031 -29.179688 26.25 -27.890625 C 28.039062 -26.609375 29.390625 -24.8125 30.296875 -22.5 C 31.210938 -20.1875 31.671875 -17.519531 31.671875 -14.5 C 31.671875 -11.550781 31.222656 -8.925781 30.328125 -6.625 C 29.429688 -4.332031 28.113281 -2.53125 26.375 -1.21875 C 24.644531 0.0820312 22.515625 0.734375 19.984375 0.734375 C 18.046875 0.734375 16.410156 0.332031 15.078125 -0.46875 C 13.753906 -1.269531 12.691406 -2.351562 11.890625 -3.71875 C 11.085938 -5.082031 10.445312 -6.601562 9.96875 -8.28125 L 9.0625 -8.28125 C 9.25 -7.195312 9.425781 -6.113281 9.59375 -5.03125 C 9.757812 -3.957031 9.890625 -2.894531 9.984375 -1.84375 C 10.078125 -0.800781 10.125 0.203125 10.125 1.171875 L 10.125 9.0625 Z M 18.1875 -4.359375 C 19.71875 -4.359375 21.015625 -4.796875 22.078125 -5.671875 C 23.140625 -6.554688 23.953125 -7.757812 24.515625 -9.28125 C 25.078125 -10.8125 25.359375 -12.566406 25.359375 -14.546875 C 25.359375 -16.597656 25.066406 -18.367188 24.484375 -19.859375 C 23.910156 -21.359375 23.085938 -22.523438 22.015625 -23.359375 C 20.953125 -24.203125 19.660156 -24.625 18.140625 -24.625 C 16.828125 -24.625 15.675781 -24.320312 14.6875 -23.71875 C 13.695312 -23.125 12.863281 -22.351562 12.1875 -21.40625 C 11.519531 -20.457031 11.007812 -19.410156 10.65625 -18.265625 C 10.300781 -17.128906 10.125 -16.019531 10.125 -14.9375 L 10.125 -14.15625 C 10.125 -13.414062 10.226562 -12.601562 10.4375 -11.71875 C 10.644531 -10.84375 10.960938 -9.972656 11.390625 -9.109375 C 11.816406 -8.253906 12.347656 -7.460938 12.984375 -6.734375 C 13.617188 -6.015625 14.375 -5.4375 15.25 -5 C 16.125 -4.570312 17.101562 -4.359375 18.1875 -4.359375 Z M 18.1875 -4.359375 "/></g></g></g><g fill="#ffffff" fill-opacity="1"><g transform="translate(413.920504, 790.352046)"><g><path d="M 15.171875 0.734375 C 13.191406 0.734375 11.40625 0.523438 9.8125 0.109375 C 8.226562 -0.296875 6.894531 -0.878906 5.8125 -1.640625 C 4.738281 -2.410156 3.890625 -3.34375 3.265625 -4.4375 C 2.648438 -5.539062 2.304688 -6.785156 2.234375 -8.171875 L 7.21875 -9.6875 C 7.21875 -8.53125 7.550781 -7.519531 8.21875 -6.65625 C 8.894531 -5.800781 9.847656 -5.140625 11.078125 -4.671875 C 12.304688 -4.203125 13.78125 -3.96875 15.5 -3.96875 C 17.550781 -3.96875 19.132812 -4.300781 20.25 -4.96875 C 21.375 -5.644531 21.9375 -6.582031 21.9375 -7.78125 C 21.9375 -8.675781 21.628906 -9.382812 21.015625 -9.90625 C 20.398438 -10.425781 19.53125 -10.851562 18.40625 -11.1875 C 17.289062 -11.53125 15.96875 -11.847656 14.4375 -12.140625 C 13.019531 -12.441406 11.628906 -12.785156 10.265625 -13.171875 C 8.910156 -13.566406 7.660156 -14.082031 6.515625 -14.71875 C 5.378906 -15.351562 4.46875 -16.179688 3.78125 -17.203125 C 3.09375 -18.234375 2.75 -19.53125 2.75 -21.09375 C 2.75 -22.882812 3.210938 -24.425781 4.140625 -25.71875 C 5.078125 -27.007812 6.429688 -28.015625 8.203125 -28.734375 C 9.972656 -29.460938 12.085938 -29.828125 14.546875 -29.828125 C 16.941406 -29.828125 19.003906 -29.472656 20.734375 -28.765625 C 22.472656 -28.054688 23.863281 -27.054688 24.90625 -25.765625 C 25.945312 -24.484375 26.5625 -22.945312 26.75 -21.15625 L 21.609375 -19.703125 C 21.566406 -20.890625 21.238281 -21.882812 20.625 -22.6875 C 20.007812 -23.5 19.175781 -24.097656 18.125 -24.484375 C 17.082031 -24.878906 15.851562 -25.078125 14.4375 -25.078125 C 12.570312 -25.078125 11.113281 -24.738281 10.0625 -24.0625 C 9.019531 -23.394531 8.5 -22.484375 8.5 -21.328125 C 8.5 -20.429688 8.828125 -19.710938 9.484375 -19.171875 C 10.140625 -18.628906 11.023438 -18.195312 12.140625 -17.875 C 13.265625 -17.5625 14.570312 -17.253906 16.0625 -16.953125 C 17.519531 -16.660156 18.9375 -16.328125 20.3125 -15.953125 C 21.695312 -15.578125 22.9375 -15.082031 24.03125 -14.46875 C 25.132812 -13.851562 26.015625 -13.03125 26.671875 -12 C 27.328125 -10.976562 27.65625 -9.679688 27.65625 -8.109375 C 27.65625 -6.210938 27.148438 -4.597656 26.140625 -3.265625 C 25.128906 -1.941406 23.691406 -0.941406 21.828125 -0.265625 C 19.960938 0.398438 17.742188 0.734375 15.171875 0.734375 Z M 15.171875 0.734375 "/></g></g></g><g fill="#ffffff" fill-opacity="1"><g transform="translate(443.637669, 790.352046)"><g/></g></g><g fill="#ffffff" fill-opacity="1"><g transform="translate(457.237061, 790.352046)"><g><path d="M 4.03125 0 L 4.03125 -29.109375 L 10.125 -29.109375 L 10.125 0 Z M 7.109375 -33.8125 C 5.804688 -33.8125 4.816406 -34.085938 4.140625 -34.640625 C 3.472656 -35.203125 3.140625 -36.007812 3.140625 -37.0625 C 3.140625 -38.101562 3.472656 -38.898438 4.140625 -39.453125 C 4.816406 -40.015625 5.804688 -40.296875 7.109375 -40.296875 C 8.410156 -40.296875 9.40625 -40.015625 10.09375 -39.453125 C 10.789062 -38.898438 11.140625 -38.101562 11.140625 -37.0625 C 11.140625 -36.007812 10.789062 -35.203125 10.09375 -34.640625 C 9.40625 -34.085938 8.410156 -33.8125 7.109375 -33.8125 Z M 7.109375 -33.8125 "/></g></g></g><g fill="#ffffff" fill-opacity="1"><g transform="translate(471.452071, 790.352046)"><g><path d="M 4.03125 0 L 4.03125 -29.109375 L 9.296875 -29.109375 L 8.953125 -19.703125 L 9.90625 -19.703125 C 10.394531 -22.128906 11.101562 -24.085938 12.03125 -25.578125 C 12.96875 -27.066406 14.113281 -28.144531 15.46875 -28.8125 C 16.832031 -29.488281 18.375 -29.828125 20.09375 -29.828125 C 21.84375 -29.828125 23.304688 -29.53125 24.484375 -28.9375 C 25.660156 -28.34375 26.613281 -27.539062 27.34375 -26.53125 C 28.070312 -25.519531 28.628906 -24.398438 29.015625 -23.171875 C 29.410156 -21.941406 29.679688 -20.671875 29.828125 -19.359375 C 29.984375 -18.054688 30.0625 -16.804688 30.0625 -15.609375 L 30.0625 0 L 23.953125 0 L 23.953125 -14.828125 C 23.953125 -15.578125 23.914062 -16.5 23.84375 -17.59375 C 23.769531 -18.695312 23.546875 -19.769531 23.171875 -20.8125 C 22.796875 -21.863281 22.21875 -22.75 21.4375 -23.46875 C 20.65625 -24.195312 19.554688 -24.5625 18.140625 -24.5625 C 16.453125 -24.5625 15.019531 -24.03125 13.84375 -22.96875 C 12.675781 -21.90625 11.785156 -20.488281 11.171875 -18.71875 C 10.554688 -16.945312 10.207031 -14.976562 10.125 -12.8125 L 10.125 0 Z M 4.03125 0 "/></g></g></g><g fill="#ffffff" fill-opacity="1"><g transform="translate(505.142722, 790.352046)"><g/></g></g><g fill="#ffffff" fill-opacity="1"><g transform="translate(518.742115, 790.352046)"><g><path d="M 15.609375 0.78125 C 13.265625 0.78125 11.242188 0.523438 9.546875 0.015625 C 7.847656 -0.484375 6.421875 -1.195312 5.265625 -2.125 C 4.109375 -3.0625 3.238281 -4.203125 2.65625 -5.546875 C 2.082031 -6.890625 1.738281 -8.378906 1.625 -10.015625 L 7.21875 -11.640625 C 7.289062 -10.222656 7.566406 -9.035156 8.046875 -8.078125 C 8.535156 -7.128906 9.179688 -6.363281 9.984375 -5.78125 C 10.785156 -5.207031 11.679688 -4.800781 12.671875 -4.5625 C 13.660156 -4.320312 14.679688 -4.203125 15.734375 -4.203125 C 17.335938 -4.203125 18.789062 -4.425781 20.09375 -4.875 C 21.394531 -5.320312 22.425781 -6.03125 23.1875 -7 C 23.957031 -7.96875 24.34375 -9.21875 24.34375 -10.75 C 24.34375 -12.726562 23.742188 -14.285156 22.546875 -15.421875 C 21.359375 -16.554688 19.632812 -17.347656 17.375 -17.796875 C 15.125 -18.242188 12.429688 -18.375 9.296875 -18.1875 L 9.296875 -22 L 22.046875 -31.515625 L 22.046875 -31.953125 L 3.1875 -31.84375 L 3.1875 -37 L 28.265625 -37 L 28.265625 -30.84375 L 16.28125 -21.71875 L 16.28125 -21.328125 C 19.75 -21.398438 22.519531 -20.96875 24.59375 -20.03125 C 26.664062 -19.101562 28.160156 -17.828125 29.078125 -16.203125 C 29.992188 -14.578125 30.453125 -12.738281 30.453125 -10.6875 C 30.453125 -8.375 29.910156 -6.359375 28.828125 -4.640625 C 27.742188 -2.929688 26.097656 -1.597656 23.890625 -0.640625 C 21.691406 0.304688 18.929688 0.78125 15.609375 0.78125 Z M 15.609375 0.78125 "/></g></g></g><g fill="#ffffff" fill-opacity="1"><g transform="translate(551.817148, 790.352046)"><g><path d="M 18.1875 0.78125 C 15.875 0.78125 13.789062 0.332031 11.9375 -0.5625 C 10.09375 -1.457031 8.507812 -2.734375 7.1875 -4.390625 C 5.863281 -6.054688 4.859375 -8.050781 4.171875 -10.375 C 3.484375 -12.707031 3.140625 -15.332031 3.140625 -18.25 C 3.140625 -22.382812 3.78125 -25.898438 5.0625 -28.796875 C 6.351562 -31.691406 8.144531 -33.894531 10.4375 -35.40625 C 12.726562 -36.914062 15.367188 -37.671875 18.359375 -37.671875 C 21.421875 -37.671875 24.066406 -36.882812 26.296875 -35.3125 C 28.535156 -33.75 30.257812 -31.519531 31.46875 -28.625 C 32.6875 -25.738281 33.296875 -22.316406 33.296875 -18.359375 C 33.296875 -15.453125 32.941406 -12.820312 32.234375 -10.46875 C 31.523438 -8.113281 30.507812 -6.097656 29.1875 -4.421875 C 27.863281 -2.742188 26.273438 -1.457031 24.421875 -0.5625 C 22.578125 0.332031 20.5 0.78125 18.1875 0.78125 Z M 18.25 -4.3125 C 19.476562 -4.3125 20.632812 -4.585938 21.71875 -5.140625 C 22.800781 -5.703125 23.75 -6.5625 24.5625 -7.71875 C 25.382812 -8.875 26.03125 -10.328125 26.5 -12.078125 C 26.96875 -13.835938 27.203125 -15.929688 27.203125 -18.359375 C 27.203125 -21.335938 26.828125 -23.890625 26.078125 -26.015625 C 25.335938 -28.148438 24.300781 -29.785156 22.96875 -30.921875 C 21.644531 -32.054688 20.070312 -32.625 18.25 -32.625 C 16.675781 -32.625 15.207031 -32.140625 13.84375 -31.171875 C 12.488281 -30.203125 11.378906 -28.679688 10.515625 -26.609375 C 9.660156 -24.535156 9.234375 -21.820312 9.234375 -18.46875 C 9.234375 -16.082031 9.457031 -14.003906 9.90625 -12.234375 C 10.351562 -10.460938 10.988281 -8.988281 11.8125 -7.8125 C 12.632812 -6.632812 13.582031 -5.753906 14.65625 -5.171875 C 15.738281 -4.597656 16.9375 -4.3125 18.25 -4.3125 Z M 18.25 -4.3125 "/></g></g></g><g fill="#ffffff" fill-opacity="1"><g transform="translate(588.250051, 790.352046)"><g/></g></g><g fill="#ffffff" fill-opacity="1"><g transform="translate(601.849444, 790.352046)"><g><path d="M 14.4375 0.734375 C 11.976562 0.734375 9.859375 0.0976562 8.078125 -1.171875 C 6.304688 -2.441406 4.945312 -4.222656 4 -6.515625 C 3.050781 -8.816406 2.578125 -11.492188 2.578125 -14.546875 C 2.578125 -17.535156 3.023438 -20.175781 3.921875 -22.46875 C 4.816406 -24.757812 6.128906 -26.550781 7.859375 -27.84375 C 9.597656 -29.132812 11.71875 -29.78125 14.21875 -29.78125 C 16.195312 -29.78125 17.847656 -29.378906 19.171875 -28.578125 C 20.492188 -27.773438 21.554688 -26.671875 22.359375 -25.265625 C 23.160156 -23.867188 23.765625 -22.273438 24.171875 -20.484375 L 25.234375 -20.484375 C 25.054688 -21.640625 24.875 -22.8125 24.6875 -24 C 24.5 -25.195312 24.347656 -26.347656 24.234375 -27.453125 C 24.117188 -28.554688 24.0625 -29.535156 24.0625 -30.390625 L 24.0625 -39.34375 L 30.21875 -39.34375 L 30.21875 0 L 24.90625 0 L 25.125 -8.171875 L 24.171875 -8.171875 C 23.722656 -6.335938 23.085938 -4.75 22.265625 -3.40625 C 21.453125 -2.070312 20.390625 -1.046875 19.078125 -0.328125 C 17.773438 0.378906 16.226562 0.734375 14.4375 0.734375 Z M 16.125 -4.421875 C 17.382812 -4.421875 18.519531 -4.71875 19.53125 -5.3125 C 20.539062 -5.914062 21.378906 -6.703125 22.046875 -7.671875 C 22.722656 -8.640625 23.238281 -9.691406 23.59375 -10.828125 C 23.945312 -11.960938 24.125 -13.035156 24.125 -14.046875 L 24.125 -14.828125 C 24.125 -15.578125 24.019531 -16.390625 23.8125 -17.265625 C 23.601562 -18.140625 23.296875 -19.015625 22.890625 -19.890625 C 22.484375 -20.773438 21.953125 -21.570312 21.296875 -22.28125 C 20.640625 -22.988281 19.878906 -23.554688 19.015625 -23.984375 C 18.160156 -24.410156 17.195312 -24.625 16.125 -24.625 C 14.59375 -24.625 13.285156 -24.1875 12.203125 -23.3125 C 11.117188 -22.4375 10.296875 -21.234375 9.734375 -19.703125 C 9.179688 -18.171875 8.90625 -16.414062 8.90625 -14.4375 C 8.90625 -12.425781 9.191406 -10.664062 9.765625 -9.15625 C 10.347656 -7.644531 11.175781 -6.476562 12.25 -5.65625 C 13.332031 -4.832031 14.625 -4.421875 16.125 -4.421875 Z M 16.125 -4.421875 "/></g></g></g><g fill="#ffffff" fill-opacity="1"><g transform="translate(636.043798, 790.352046)"><g><path d="M 10.859375 0.734375 C 9.253906 0.734375 7.816406 0.425781 6.546875 -0.1875 C 5.273438 -0.8125 4.265625 -1.71875 3.515625 -2.90625 C 2.773438 -4.101562 2.40625 -5.597656 2.40625 -7.390625 C 2.40625 -9.328125 2.832031 -10.882812 3.6875 -12.0625 C 4.550781 -13.238281 5.65625 -14.148438 7 -14.796875 C 8.34375 -15.453125 9.796875 -15.925781 11.359375 -16.21875 C 12.929688 -16.519531 14.441406 -16.765625 15.890625 -16.953125 C 17.347656 -17.179688 18.492188 -17.390625 19.328125 -17.578125 C 20.171875 -17.765625 20.78125 -18.0625 21.15625 -18.46875 C 21.53125 -18.875 21.71875 -19.453125 21.71875 -20.203125 C 21.71875 -21.097656 21.507812 -21.898438 21.09375 -22.609375 C 20.6875 -23.316406 20.082031 -23.882812 19.28125 -24.3125 C 18.476562 -24.75 17.441406 -24.96875 16.171875 -24.96875 C 15.054688 -24.96875 13.972656 -24.769531 12.921875 -24.375 C 11.878906 -23.976562 10.972656 -23.359375 10.203125 -22.515625 C 9.441406 -21.679688 8.929688 -20.554688 8.671875 -19.140625 L 3.1875 -20.828125 C 3.519531 -22.273438 4.0625 -23.554688 4.8125 -24.671875 C 5.5625 -25.796875 6.484375 -26.738281 7.578125 -27.5 C 8.679688 -28.269531 9.953125 -28.847656 11.390625 -29.234375 C 12.828125 -29.628906 14.40625 -29.828125 16.125 -29.828125 C 18.4375 -29.828125 20.335938 -29.507812 21.828125 -28.875 C 23.316406 -28.238281 24.488281 -27.359375 25.34375 -26.234375 C 26.207031 -25.117188 26.816406 -23.832031 27.171875 -22.375 C 27.523438 -20.925781 27.703125 -19.363281 27.703125 -17.6875 L 27.703125 -11.859375 C 27.703125 -10.671875 27.726562 -9.382812 27.78125 -8 C 27.84375 -6.625 27.921875 -5.253906 28.015625 -3.890625 C 28.109375 -2.523438 28.207031 -1.226562 28.3125 0 L 22.78125 0 C 22.707031 -1.15625 22.625 -2.347656 22.53125 -3.578125 C 22.4375 -4.804688 22.367188 -6.039062 22.328125 -7.28125 L 21.546875 -7.28125 C 21.023438 -5.863281 20.285156 -4.535156 19.328125 -3.296875 C 18.378906 -2.066406 17.195312 -1.085938 15.78125 -0.359375 C 14.363281 0.367188 12.722656 0.734375 10.859375 0.734375 Z M 12.984375 -3.96875 C 13.765625 -3.96875 14.566406 -4.109375 15.390625 -4.390625 C 16.210938 -4.671875 17.023438 -5.09375 17.828125 -5.65625 C 18.628906 -6.21875 19.363281 -6.941406 20.03125 -7.828125 C 20.707031 -8.722656 21.285156 -9.789062 21.765625 -11.03125 L 21.765625 -15.953125 L 23.171875 -15.734375 C 22.578125 -15.171875 21.800781 -14.738281 20.84375 -14.4375 C 19.894531 -14.144531 18.859375 -13.910156 17.734375 -13.734375 C 16.617188 -13.566406 15.507812 -13.378906 14.40625 -13.171875 C 13.3125 -12.972656 12.304688 -12.695312 11.390625 -12.34375 C 10.472656 -11.988281 9.742188 -11.484375 9.203125 -10.828125 C 8.660156 -10.171875 8.390625 -9.285156 8.390625 -8.171875 C 8.390625 -6.828125 8.804688 -5.789062 9.640625 -5.0625 C 10.484375 -4.332031 11.597656 -3.96875 12.984375 -3.96875 Z M 12.984375 -3.96875 "/></g></g></g><g fill="#ffffff" fill-opacity="1"><g transform="translate(667.160067, 790.352046)"><g><path d="M 14.609375 9.734375 C 13.117188 9.734375 11.625 9.570312 10.125 9.25 C 8.632812 8.9375 7.265625 8.453125 6.015625 7.796875 C 4.765625 7.148438 3.710938 6.304688 2.859375 5.265625 L 5.3125 0.453125 C 6.28125 1.710938 7.585938 2.671875 9.234375 3.328125 C 10.878906 3.984375 12.597656 4.3125 14.390625 4.3125 C 16.140625 4.3125 17.609375 4.007812 18.796875 3.40625 C 19.992188 2.8125 20.945312 1.953125 21.65625 0.828125 C 22.363281 -0.285156 22.882812 -1.601562 23.21875 -3.125 C 23.5625 -4.65625 23.75 -6.359375 23.78125 -8.234375 L 24.296875 -13.546875 L 23.234375 -13.546875 C 22.859375 -10.898438 22.226562 -8.765625 21.34375 -7.140625 C 20.46875 -5.515625 19.378906 -4.335938 18.078125 -3.609375 C 16.773438 -2.878906 15.28125 -2.515625 13.59375 -2.515625 C 11.695312 -2.515625 10.128906 -2.894531 8.890625 -3.65625 C 7.660156 -4.425781 6.707031 -5.398438 6.03125 -6.578125 C 5.363281 -7.753906 4.867188 -9.003906 4.546875 -10.328125 C 4.234375 -11.648438 4.050781 -12.878906 4 -14.015625 C 3.945312 -15.160156 3.921875 -16.046875 3.921875 -16.671875 L 3.921875 -29.109375 L 9.96875 -29.109375 L 9.96875 -18.40625 C 9.96875 -17.738281 9.984375 -16.945312 10.015625 -16.03125 C 10.054688 -15.113281 10.160156 -14.171875 10.328125 -13.203125 C 10.492188 -12.234375 10.78125 -11.335938 11.1875 -10.515625 C 11.601562 -9.703125 12.164062 -9.039062 12.875 -8.53125 C 13.582031 -8.03125 14.515625 -7.78125 15.671875 -7.78125 C 16.898438 -7.78125 17.941406 -8.125 18.796875 -8.8125 C 19.660156 -9.5 20.367188 -10.421875 20.921875 -11.578125 C 21.484375 -12.742188 21.90625 -14.0625 22.1875 -15.53125 C 22.46875 -17 22.628906 -18.519531 22.671875 -20.09375 L 22.671875 -29.109375 L 28.765625 -29.109375 L 28.765625 -7.953125 C 28.765625 -6.609375 28.695312 -5.242188 28.5625 -3.859375 C 28.4375 -2.484375 28.1875 -1.132812 27.8125 0.1875 C 27.4375 1.519531 26.910156 2.753906 26.234375 3.890625 C 25.566406 5.023438 24.710938 6.039062 23.671875 6.9375 C 22.628906 7.832031 21.367188 8.519531 19.890625 9 C 18.421875 9.488281 16.660156 9.734375 14.609375 9.734375 Z M 14.609375 9.734375 "/></g></g></g><g fill="#ffffff" fill-opacity="1"><g transform="translate(699.899314, 790.352046)"><g><path d="M 15.171875 0.734375 C 13.191406 0.734375 11.40625 0.523438 9.8125 0.109375 C 8.226562 -0.296875 6.894531 -0.878906 5.8125 -1.640625 C 4.738281 -2.410156 3.890625 -3.34375 3.265625 -4.4375 C 2.648438 -5.539062 2.304688 -6.785156 2.234375 -8.171875 L 7.21875 -9.6875 C 7.21875 -8.53125 7.550781 -7.519531 8.21875 -6.65625 C 8.894531 -5.800781 9.847656 -5.140625 11.078125 -4.671875 C 12.304688 -4.203125 13.78125 -3.96875 15.5 -3.96875 C 17.550781 -3.96875 19.132812 -4.300781 20.25 -4.96875 C 21.375 -5.644531 21.9375 -6.582031 21.9375 -7.78125 C 21.9375 -8.675781 21.628906 -9.382812 21.015625 -9.90625 C 20.398438 -10.425781 19.53125 -10.851562 18.40625 -11.1875 C 17.289062 -11.53125 15.96875 -11.847656 14.4375 -12.140625 C 13.019531 -12.441406 11.628906 -12.785156 10.265625 -13.171875 C 8.910156 -13.566406 7.660156 -14.082031 6.515625 -14.71875 C 5.378906 -15.351562 4.46875 -16.179688 3.78125 -17.203125 C 3.09375 -18.234375 2.75 -19.53125 2.75 -21.09375 C 2.75 -22.882812 3.210938 -24.425781 4.140625 -25.71875 C 5.078125 -27.007812 6.429688 -28.015625 8.203125 -28.734375 C 9.972656 -29.460938 12.085938 -29.828125 14.546875 -29.828125 C 16.941406 -29.828125 19.003906 -29.472656 20.734375 -28.765625 C 22.472656 -28.054688 23.863281 -27.054688 24.90625 -25.765625 C 25.945312 -24.484375 26.5625 -22.945312 26.75 -21.15625 L 21.609375 -19.703125 C 21.566406 -20.890625 21.238281 -21.882812 20.625 -22.6875 C 20.007812 -23.5 19.175781 -24.097656 18.125 -24.484375 C 17.082031 -24.878906 15.851562 -25.078125 14.4375 -25.078125 C 12.570312 -25.078125 11.113281 -24.738281 10.0625 -24.0625 C 9.019531 -23.394531 8.5 -22.484375 8.5 -21.328125 C 8.5 -20.429688 8.828125 -19.710938 9.484375 -19.171875 C 10.140625 -18.628906 11.023438 -18.195312 12.140625 -17.875 C 13.265625 -17.5625 14.570312 -17.253906 16.0625 -16.953125 C 17.519531 -16.660156 18.9375 -16.328125 20.3125 -15.953125 C 21.695312 -15.578125 22.9375 -15.082031 24.03125 -14.46875 C 25.132812 -13.851562 26.015625 -13.03125 26.671875 -12 C 27.328125 -10.976562 27.65625 -9.679688 27.65625 -8.109375 C 27.65625 -6.210938 27.148438 -4.597656 26.140625 -3.265625 C 25.128906 -1.941406 23.691406 -0.941406 21.828125 -0.265625 C 19.960938 0.398438 17.742188 0.734375 15.171875 0.734375 Z M 15.171875 0.734375 "/></g></g></g><g fill="#ffffff" fill-opacity="1"><g transform="translate(730.120182, 790.352046)"><g><path d="M 5.421875 0.671875 C 4.046875 0.671875 3.007812 0.375 2.3125 -0.21875 C 1.625 -0.820312 1.28125 -1.753906 1.28125 -3.015625 C 1.28125 -4.328125 1.625 -5.28125 2.3125 -5.875 C 3.007812 -6.46875 4.046875 -6.765625 5.421875 -6.765625 C 6.804688 -6.765625 7.851562 -6.46875 8.5625 -5.875 C 9.269531 -5.28125 9.625 -4.328125 9.625 -3.015625 C 9.625 -0.554688 8.222656 0.671875 5.421875 0.671875 Z M 5.421875 0.671875 "/></g></g></g></svg>