<svg xmlns="http://www.w3.org/2000/svg" xmlns:xlink="http://www.w3.org/1999/xlink" width="1080" zoomAndPan="magnify" viewBox="0 0 810 1012.49997" height="1350" preserveAspectRatio="xMidYMid meet" version="1.0"><defs><g/><clipPath id="666893e709"><path d="M 0.199219 0 L 809.800781 0 L 809.800781 1012 L 0.199219 1012 Z M 0.199219 0 " clip-rule="nonzero"/></clipPath><clipPath id="0afa3b8d8d"><path d="M 240.859375 343.273438 L 264.421875 343.273438 L 264.421875 432.191406 L 240.859375 432.191406 Z M 240.859375 343.273438 " clip-rule="nonzero"/></clipPath><clipPath id="2a26d3b8ec"><path d="M 252.640625 343.273438 C 255.765625 343.273438 258.761719 344.515625 260.96875 346.726562 C 263.179688 348.933594 264.421875 351.929688 264.421875 355.054688 L 264.421875 420.355469 C 264.421875 423.480469 263.179688 426.476562 260.96875 428.6875 C 258.761719 430.894531 255.765625 432.136719 252.640625 432.136719 C 249.515625 432.136719 246.519531 430.894531 244.308594 428.6875 C 242.097656 426.476562 240.859375 423.480469 240.859375 420.355469 L 240.859375 355.054688 C 240.859375 351.929688 242.097656 348.933594 244.308594 346.726562 C 246.519531 344.515625 249.515625 343.273438 252.640625 343.273438 Z M 252.640625 343.273438 " clip-rule="nonzero"/></clipPath><clipPath id="14774d6b31"><path d="M 284.386719 258.5625 L 307.953125 258.5625 L 307.953125 505.796875 L 284.386719 505.796875 Z M 284.386719 258.5625 " clip-rule="nonzero"/></clipPath><clipPath id="e0f070d609"><path d="M 296.171875 258.5625 C 299.296875 258.5625 302.292969 259.804688 304.5 262.011719 C 306.710938 264.222656 307.953125 267.21875 307.953125 270.34375 L 307.953125 493.988281 C 307.953125 497.113281 306.710938 500.109375 304.5 502.320312 C 302.292969 504.527344 299.296875 505.769531 296.171875 505.769531 C 293.046875 505.769531 290.046875 504.527344 287.839844 502.320312 C 285.628906 500.109375 284.386719 497.113281 284.386719 493.988281 L 284.386719 270.34375 C 284.386719 267.21875 285.628906 264.222656 287.839844 262.011719 C 290.046875 259.804688 293.046875 258.5625 296.171875 258.5625 Z M 296.171875 258.5625 " clip-rule="nonzero"/></clipPath><clipPath id="984e16d050"><path d="M 327.917969 210.683594 L 351.484375 210.683594 L 351.484375 319.851562 L 327.917969 319.851562 Z M 327.917969 210.683594 " clip-rule="nonzero"/></clipPath><clipPath id="fcf5103072"><path d="M 339.699219 210.683594 C 342.824219 210.683594 345.824219 211.925781 348.03125 214.136719 C 350.242188 216.34375 351.484375 219.339844 351.484375 222.464844 L 351.484375 308.003906 C 351.484375 311.128906 350.242188 314.125 348.03125 316.335938 C 345.824219 318.542969 342.824219 319.785156 339.699219 319.785156 C 336.578125 319.785156 333.578125 318.542969 331.371094 316.335938 C 329.160156 314.125 327.917969 311.128906 327.917969 308.003906 L 327.917969 222.464844 C 327.917969 219.339844 329.160156 216.34375 331.371094 214.136719 C 333.578125 211.925781 336.578125 210.683594 339.699219 210.683594 Z M 339.699219 210.683594 " clip-rule="nonzero"/></clipPath><clipPath id="03eb500c56"><path d="M 327.917969 327.8125 L 351.484375 327.8125 L 351.484375 390 L 327.917969 390 Z M 327.917969 327.8125 " clip-rule="nonzero"/></clipPath><clipPath id="1e9ae8fb8b"><path d="M 339.699219 327.8125 C 342.824219 327.8125 345.824219 329.050781 348.03125 331.261719 C 350.242188 333.472656 351.484375 336.46875 351.484375 339.59375 L 351.484375 378.183594 C 351.484375 381.308594 350.242188 384.304688 348.03125 386.515625 C 345.824219 388.726562 342.824219 389.964844 339.699219 389.964844 C 336.578125 389.964844 333.578125 388.726562 331.371094 386.515625 C 329.160156 384.304688 327.917969 381.308594 327.917969 378.183594 L 327.917969 339.59375 C 327.917969 336.46875 329.160156 333.472656 331.371094 331.261719 C 333.578125 329.050781 336.578125 327.8125 339.699219 327.8125 Z M 339.699219 327.8125 " clip-rule="nonzero"/></clipPath><clipPath id="5a0f575279"><path d="M 327.917969 397.992188 L 351.484375 397.992188 L 351.484375 539.925781 L 327.917969 539.925781 Z M 327.917969 397.992188 " clip-rule="nonzero"/></clipPath><clipPath id="636ac137d2"><path d="M 339.699219 397.992188 C 342.824219 397.992188 345.824219 399.234375 348.03125 401.441406 C 350.242188 403.652344 351.484375 406.648438 351.484375 409.773438 L 351.484375 528.132812 C 351.484375 531.257812 350.242188 534.253906 348.03125 536.460938 C 345.824219 538.671875 342.824219 539.914062 339.699219 539.914062 C 336.578125 539.914062 333.578125 538.671875 331.371094 536.460938 C 329.160156 534.253906 327.917969 531.257812 327.917969 528.132812 L 327.917969 409.773438 C 327.917969 406.648438 329.160156 403.652344 331.371094 401.441406 C 333.578125 399.234375 336.578125 397.992188 339.699219 397.992188 Z M 339.699219 397.992188 " clip-rule="nonzero"/></clipPath><clipPath id="58e946f062"><path d="M 371.449219 151.007812 L 395.011719 151.007812 L 395.011719 262.566406 L 371.449219 262.566406 Z M 371.449219 151.007812 " clip-rule="nonzero"/></clipPath><clipPath id="021ca2333b"><path d="M 383.230469 151.007812 C 386.355469 151.007812 389.351562 152.25 391.5625 154.460938 C 393.773438 156.667969 395.011719 159.664062 395.011719 162.789062 L 395.011719 250.75 C 395.011719 253.875 393.773438 256.871094 391.5625 259.082031 C 389.351562 261.292969 386.355469 262.53125 383.230469 262.53125 C 380.105469 262.53125 377.109375 261.292969 374.902344 259.082031 C 372.691406 256.871094 371.449219 253.875 371.449219 250.75 L 371.449219 162.789062 C 371.449219 159.664062 372.691406 156.667969 374.902344 154.460938 C 377.109375 152.25 380.105469 151.007812 383.230469 151.007812 Z M 383.230469 151.007812 " clip-rule="nonzero"/></clipPath><clipPath id="8678525e31"><path d="M 371.449219 271.007812 L 395.011719 271.007812 L 395.011719 390.207031 L 371.449219 390.207031 Z M 371.449219 271.007812 " clip-rule="nonzero"/></clipPath><clipPath id="2b95ab4358"><path d="M 383.230469 271.007812 C 386.355469 271.007812 389.351562 272.246094 391.5625 274.457031 C 393.773438 276.667969 395.011719 279.664062 395.011719 282.789062 L 395.011719 378.351562 C 395.011719 381.476562 393.773438 384.472656 391.5625 386.683594 C 389.351562 388.890625 386.355469 390.132812 383.230469 390.132812 C 380.105469 390.132812 377.109375 388.890625 374.902344 386.683594 C 372.691406 384.472656 371.449219 381.476562 371.449219 378.351562 L 371.449219 282.789062 C 371.449219 279.664062 372.691406 276.667969 374.902344 274.457031 C 377.109375 272.246094 380.105469 271.007812 383.230469 271.007812 Z M 383.230469 271.007812 " clip-rule="nonzero"/></clipPath><clipPath id="97e91d589f"><path d="M 371.449219 398.355469 L 395.011719 398.355469 L 395.011719 613.375 L 371.449219 613.375 Z M 371.449219 398.355469 " clip-rule="nonzero"/></clipPath><clipPath id="2ac197b21a"><path d="M 383.230469 398.355469 C 386.355469 398.355469 389.351562 399.597656 391.5625 401.804688 C 393.773438 404.015625 395.011719 407.011719 395.011719 410.136719 L 395.011719 601.542969 C 395.011719 604.664062 393.773438 607.664062 391.5625 609.871094 C 389.351562 612.082031 386.355469 613.324219 383.230469 613.324219 C 380.105469 613.324219 377.109375 612.082031 374.902344 609.871094 C 372.691406 607.664062 371.449219 604.664062 371.449219 601.542969 L 371.449219 410.136719 C 371.449219 407.011719 372.691406 404.015625 374.902344 401.804688 C 377.109375 399.597656 380.105469 398.355469 383.230469 398.355469 Z M 383.230469 398.355469 " clip-rule="nonzero"/></clipPath><clipPath id="96febbdb84"><path d="M 414.980469 183.023438 L 438.542969 183.023438 L 438.542969 330.296875 L 414.980469 330.296875 Z M 414.980469 183.023438 " clip-rule="nonzero"/></clipPath><clipPath id="d9c47269dc"><path d="M 426.761719 183.023438 C 429.886719 183.023438 432.882812 184.265625 435.09375 186.476562 C 437.304688 188.683594 438.542969 191.679688 438.542969 194.804688 L 438.542969 318.425781 C 438.542969 321.550781 437.304688 324.546875 435.09375 326.753906 C 432.882812 328.964844 429.886719 330.207031 426.761719 330.207031 C 423.636719 330.207031 420.640625 328.964844 418.429688 326.753906 C 416.222656 324.546875 414.980469 321.550781 414.980469 318.425781 L 414.980469 194.804688 C 414.980469 191.679688 416.222656 188.683594 418.429688 186.476562 C 420.640625 184.265625 423.636719 183.023438 426.761719 183.023438 Z M 426.761719 183.023438 " clip-rule="nonzero"/></clipPath><clipPath id="9a974f49fd"><path d="M 414.980469 338.707031 L 438.542969 338.707031 L 438.542969 456.800781 L 414.980469 456.800781 Z M 414.980469 338.707031 " clip-rule="nonzero"/></clipPath><clipPath id="5551abf371"><path d="M 426.761719 338.707031 C 429.886719 338.707031 432.882812 339.949219 435.09375 342.15625 C 437.304688 344.367188 438.542969 347.363281 438.542969 350.488281 L 438.542969 444.9375 C 438.542969 448.0625 437.304688 451.058594 435.09375 453.269531 C 432.882812 455.476562 429.886719 456.71875 426.761719 456.71875 C 423.636719 456.71875 420.640625 455.476562 418.429688 453.269531 C 416.222656 451.058594 414.980469 448.0625 414.980469 444.9375 L 414.980469 350.488281 C 414.980469 347.363281 416.222656 344.367188 418.429688 342.15625 C 420.640625 339.949219 423.636719 338.707031 426.761719 338.707031 Z M 426.761719 338.707031 " clip-rule="nonzero"/></clipPath><clipPath id="4c10e926ab"><path d="M 414.980469 465.21875 L 438.542969 465.21875 L 438.542969 591 L 414.980469 591 Z M 414.980469 465.21875 " clip-rule="nonzero"/></clipPath><clipPath id="c39d6c750b"><path d="M 426.761719 465.21875 C 429.886719 465.21875 432.882812 466.460938 435.09375 468.671875 C 437.304688 470.878906 438.542969 473.878906 438.542969 477 L 438.542969 579.191406 C 438.542969 582.316406 437.304688 585.3125 435.09375 587.519531 C 432.882812 589.730469 429.886719 590.972656 426.761719 590.972656 C 423.636719 590.972656 420.640625 589.730469 418.429688 587.519531 C 416.222656 585.3125 414.980469 582.316406 414.980469 579.191406 L 414.980469 477 C 414.980469 473.878906 416.222656 470.878906 418.429688 468.671875 C 420.640625 466.460938 423.636719 465.21875 426.761719 465.21875 Z M 426.761719 465.21875 " clip-rule="nonzero"/></clipPath><clipPath id="211b173bd4"><path d="M 458.511719 225.003906 L 482.074219 225.003906 L 482.074219 381.851562 L 458.511719 381.851562 Z M 458.511719 225.003906 " clip-rule="nonzero"/></clipPath><clipPath id="a33eabbb46"><path d="M 470.292969 225.003906 C 473.417969 225.003906 476.414062 226.246094 478.625 228.457031 C 480.832031 230.664062 482.074219 233.664062 482.074219 236.789062 L 482.074219 370.054688 C 482.074219 373.175781 480.832031 376.175781 478.625 378.382812 C 476.414062 380.59375 473.417969 381.835938 470.292969 381.835938 C 467.167969 381.835938 464.171875 380.59375 461.960938 378.382812 C 459.753906 376.175781 458.511719 373.175781 458.511719 370.054688 L 458.511719 236.789062 C 458.511719 233.664062 459.753906 230.664062 461.960938 228.457031 C 464.171875 226.246094 467.167969 225.003906 470.292969 225.003906 Z M 470.292969 225.003906 " clip-rule="nonzero"/></clipPath><clipPath id="1c622821cc"><path d="M 458.511719 390.1875 L 482.074219 390.1875 L 482.074219 457.101562 L 458.511719 457.101562 Z M 458.511719 390.1875 " clip-rule="nonzero"/></clipPath><clipPath id="2045d7f068"><path d="M 470.292969 390.1875 C 473.417969 390.1875 476.414062 391.425781 478.625 393.636719 C 480.832031 395.847656 482.074219 398.84375 482.074219 401.96875 L 482.074219 445.296875 C 482.074219 448.421875 480.832031 451.417969 478.625 453.628906 C 476.414062 455.839844 473.417969 457.078125 470.292969 457.078125 C 467.167969 457.078125 464.171875 455.839844 461.960938 453.628906 C 459.753906 451.417969 458.511719 448.421875 458.511719 445.296875 L 458.511719 401.96875 C 458.511719 398.84375 459.753906 395.847656 461.960938 393.636719 C 464.171875 391.425781 467.167969 390.1875 470.292969 390.1875 Z M 470.292969 390.1875 " clip-rule="nonzero"/></clipPath><clipPath id="e37da553e6"><path d="M 458.511719 465.300781 L 482.074219 465.300781 L 482.074219 542.988281 L 458.511719 542.988281 Z M 458.511719 465.300781 " clip-rule="nonzero"/></clipPath><clipPath id="67fcbe3f53"><path d="M 470.292969 465.300781 C 473.417969 465.300781 476.414062 466.542969 478.625 468.753906 C 480.832031 470.960938 482.074219 473.957031 482.074219 477.082031 L 482.074219 531.128906 C 482.074219 534.253906 480.832031 537.25 478.625 539.460938 C 476.414062 541.667969 473.417969 542.910156 470.292969 542.910156 C 467.167969 542.910156 464.171875 541.667969 461.960938 539.460938 C 459.753906 537.25 458.511719 534.253906 458.511719 531.128906 L 458.511719 477.082031 C 458.511719 473.957031 459.753906 470.960938 461.960938 468.753906 C 464.171875 466.542969 467.167969 465.300781 470.292969 465.300781 Z M 470.292969 465.300781 " clip-rule="nonzero"/></clipPath><clipPath id="41e794117f"><path d="M 545.578125 348.902344 L 569.140625 348.902344 L 569.140625 426.585938 L 545.578125 426.585938 Z M 545.578125 348.902344 " clip-rule="nonzero"/></clipPath><clipPath id="f812f521d3"><path d="M 557.359375 348.902344 C 560.484375 348.902344 563.480469 350.140625 565.691406 352.351562 C 567.902344 354.5625 569.140625 357.558594 569.140625 360.683594 L 569.140625 414.726562 C 569.140625 417.851562 567.902344 420.851562 565.691406 423.058594 C 563.480469 425.269531 560.484375 426.511719 557.359375 426.511719 C 554.234375 426.511719 551.238281 425.269531 549.03125 423.058594 C 546.820312 420.851562 545.578125 417.851562 545.578125 414.726562 L 545.578125 360.683594 C 545.578125 357.558594 546.820312 354.5625 549.03125 352.351562 C 551.238281 350.140625 554.234375 348.902344 557.359375 348.902344 Z M 557.359375 348.902344 " clip-rule="nonzero"/></clipPath><clipPath id="f1df9d26eb"><path d="M 502.042969 288.8125 L 525.605469 288.8125 L 525.605469 486.617188 L 502.042969 486.617188 Z M 502.042969 288.8125 " clip-rule="nonzero"/></clipPath><clipPath id="bfdc444fd9"><path d="M 513.824219 288.8125 C 516.949219 288.8125 519.945312 290.050781 522.15625 292.261719 C 524.363281 294.472656 525.605469 297.46875 525.605469 300.59375 L 525.605469 474.820312 C 525.605469 477.945312 524.363281 480.941406 522.15625 483.148438 C 519.945312 485.359375 516.949219 486.601562 513.824219 486.601562 C 510.699219 486.601562 507.703125 485.359375 505.492188 483.148438 C 503.285156 480.941406 502.042969 477.945312 502.042969 474.820312 L 502.042969 300.59375 C 502.042969 297.46875 503.285156 294.472656 505.492188 292.261719 C 507.703125 290.050781 510.699219 288.8125 513.824219 288.8125 Z M 513.824219 288.8125 " clip-rule="nonzero"/></clipPath></defs><g clip-path="url(#666893e709)"><path fill="#ffffff" d="M 0.199219 0 L 809.800781 0 L 809.800781 1012 L 0.199219 1012 Z M 0.199219 0 " fill-opacity="1" fill-rule="nonzero"/><path fill="#ffffff" d="M 0.199219 0 L 809.800781 0 L 809.800781 1012 L 0.199219 1012 Z M 0.199219 0 " fill-opacity="1" fill-rule="nonzero"/></g><g clip-path="url(#0afa3b8d8d)"><g clip-path="url(#2a26d3b8ec)"><path fill="#7264c1" d="M 240.859375 343.273438 L 264.421875 343.273438 L 264.421875 432.097656 L 240.859375 432.097656 Z M 240.859375 343.273438 " fill-opacity="1" fill-rule="nonzero"/></g></g><g clip-path="url(#14774d6b31)"><g clip-path="url(#e0f070d609)"><path fill="#7264c1" d="M 284.386719 258.5625 L 307.953125 258.5625 L 307.953125 505.796875 L 284.386719 505.796875 Z M 284.386719 258.5625 " fill-opacity="1" fill-rule="nonzero"/></g></g><g clip-path="url(#984e16d050)"><g clip-path="url(#fcf5103072)"><path fill="#7264c1" d="M 327.917969 210.683594 L 351.484375 210.683594 L 351.484375 319.757812 L 327.917969 319.757812 Z M 327.917969 210.683594 " fill-opacity="1" fill-rule="nonzero"/></g></g><g clip-path="url(#03eb500c56)"><g clip-path="url(#1e9ae8fb8b)"><path fill="#7264c1" d="M 327.917969 327.8125 L 351.484375 327.8125 L 351.484375 389.941406 L 327.917969 389.941406 Z M 327.917969 327.8125 " fill-opacity="1" fill-rule="nonzero"/></g></g><g clip-path="url(#5a0f575279)"><g clip-path="url(#636ac137d2)"><path fill="#7264c1" d="M 327.917969 397.992188 L 351.484375 397.992188 L 351.484375 539.925781 L 327.917969 539.925781 Z M 327.917969 397.992188 " fill-opacity="1" fill-rule="nonzero"/></g></g><g clip-path="url(#58e946f062)"><g clip-path="url(#021ca2333b)"><path fill="#7264c1" d="M 371.449219 151.007812 L 395.011719 151.007812 L 395.011719 262.566406 L 371.449219 262.566406 Z M 371.449219 151.007812 " fill-opacity="1" fill-rule="nonzero"/></g></g><g clip-path="url(#8678525e31)"><g clip-path="url(#2b95ab4358)"><path fill="#7264c1" d="M 371.449219 271.007812 L 395.011719 271.007812 L 395.011719 390.113281 L 371.449219 390.113281 Z M 371.449219 271.007812 " fill-opacity="1" fill-rule="nonzero"/></g></g><g clip-path="url(#97e91d589f)"><g clip-path="url(#2ac197b21a)"><path fill="#7264c1" d="M 371.449219 398.355469 L 395.011719 398.355469 L 395.011719 613.28125 L 371.449219 613.28125 Z M 371.449219 398.355469 " fill-opacity="1" fill-rule="nonzero"/></g></g><g clip-path="url(#96febbdb84)"><g clip-path="url(#d9c47269dc)"><path fill="#7264c1" d="M 414.980469 183.023438 L 438.542969 183.023438 L 438.542969 330.203125 L 414.980469 330.203125 Z M 414.980469 183.023438 " fill-opacity="1" fill-rule="nonzero"/></g></g><g clip-path="url(#9a974f49fd)"><g clip-path="url(#5551abf371)"><path fill="#7264c1" d="M 414.980469 338.707031 L 438.542969 338.707031 L 438.542969 456.707031 L 414.980469 456.707031 Z M 414.980469 338.707031 " fill-opacity="1" fill-rule="nonzero"/></g></g><g clip-path="url(#4c10e926ab)"><g clip-path="url(#c39d6c750b)"><path fill="#7264c1" d="M 414.980469 465.21875 L 438.542969 465.21875 L 438.542969 590.953125 L 414.980469 590.953125 Z M 414.980469 465.21875 " fill-opacity="1" fill-rule="nonzero"/></g></g><g clip-path="url(#211b173bd4)"><g clip-path="url(#a33eabbb46)"><path fill="#7264c1" d="M 458.511719 225.003906 L 482.074219 225.003906 L 482.074219 381.851562 L 458.511719 381.851562 Z M 458.511719 225.003906 " fill-opacity="1" fill-rule="nonzero"/></g></g><g clip-path="url(#1c622821cc)"><g clip-path="url(#2045d7f068)"><path fill="#7264c1" d="M 458.511719 390.1875 L 482.074219 390.1875 L 482.074219 457.101562 L 458.511719 457.101562 Z M 458.511719 390.1875 " fill-opacity="1" fill-rule="nonzero"/></g></g><g clip-path="url(#e37da553e6)"><g clip-path="url(#67fcbe3f53)"><path fill="#7264c1" d="M 458.511719 465.300781 L 482.074219 465.300781 L 482.074219 542.894531 L 458.511719 542.894531 Z M 458.511719 465.300781 " fill-opacity="1" fill-rule="nonzero"/></g></g><g clip-path="url(#41e794117f)"><g clip-path="url(#f812f521d3)"><path fill="#7264c1" d="M 545.578125 348.902344 L 569.140625 348.902344 L 569.140625 426.496094 L 545.578125 426.496094 Z M 545.578125 348.902344 " fill-opacity="1" fill-rule="nonzero"/></g></g><g clip-path="url(#f1df9d26eb)"><g clip-path="url(#bfdc444fd9)"><path fill="#7264c1" d="M 502.042969 288.8125 L 525.605469 288.8125 L 525.605469 486.617188 L 502.042969 486.617188 Z M 502.042969 288.8125 " fill-opacity="1" fill-rule="nonzero"/></g></g><g fill="#7264c1" fill-opacity="1"><g transform="translate(77.14238, 735.479436)"><g><path d="M 11.59375 -15.828125 L 11.59375 -23.03125 L 23.34375 -23.03125 C 24.414062 -23.03125 25.601562 -23.054688 26.90625 -23.109375 C 28.207031 -23.160156 29.507812 -23.375 30.8125 -23.75 C 32.125 -24.125 33.335938 -24.707031 34.453125 -25.5 C 35.578125 -26.300781 36.472656 -27.4375 37.140625 -28.90625 C 37.804688 -30.375 38.140625 -32.253906 38.140625 -34.546875 C 38.140625 -36.773438 37.789062 -38.582031 37.09375 -39.96875 C 36.40625 -41.363281 35.523438 -42.457031 34.453125 -43.25 C 33.390625 -44.050781 32.234375 -44.625 30.984375 -44.96875 C 29.734375 -45.320312 28.570312 -45.535156 27.5 -45.609375 C 26.4375 -45.691406 25.554688 -45.734375 24.859375 -45.734375 L 11.59375 -45.734375 L 11.59375 -52.765625 L 25.5 -52.765625 C 28.644531 -52.765625 31.535156 -52.390625 34.171875 -51.640625 C 36.816406 -50.898438 39.097656 -49.769531 41.015625 -48.25 C 42.929688 -46.726562 44.410156 -44.804688 45.453125 -42.484375 C 46.492188 -40.171875 47.015625 -37.441406 47.015625 -34.296875 C 47.015625 -30.296875 46.117188 -26.921875 44.328125 -24.171875 C 42.546875 -21.429688 39.851562 -19.351562 36.25 -17.9375 C 32.65625 -16.53125 28.164062 -15.828125 22.78125 -15.828125 Z M 6.3125 0 L 6.3125 -52.765625 L 15.03125 -52.765625 L 15.03125 0 Z M 6.3125 0 "/></g></g></g><g fill="#7264c1" fill-opacity="1"><g transform="translate(126.793032, 735.479436)"><g><path d="M 5.75 0 L 5.75 -41.578125 L 13.359375 -41.578125 L 12.875 -26.859375 L 14.234375 -26.859375 C 14.710938 -30.222656 15.457031 -33.078125 16.46875 -35.421875 C 17.476562 -37.765625 18.847656 -39.535156 20.578125 -40.734375 C 22.316406 -41.929688 24.4375 -42.53125 26.9375 -42.53125 C 27.53125 -42.53125 28.160156 -42.488281 28.828125 -42.40625 C 29.492188 -42.332031 30.253906 -42.160156 31.109375 -41.890625 L 30.625 -32.78125 C 29.820312 -33.101562 28.992188 -33.34375 28.140625 -33.5 C 27.285156 -33.65625 26.488281 -33.734375 25.75 -33.734375 C 23.664062 -33.734375 21.878906 -33.117188 20.390625 -31.890625 C 18.898438 -30.671875 17.671875 -28.96875 16.703125 -26.78125 C 15.742188 -24.59375 15 -22.085938 14.46875 -19.265625 L 14.46875 0 Z M 5.75 0 "/></g></g></g><g fill="#7264c1" fill-opacity="1"><g transform="translate(158.614196, 735.479436)"><g><path d="M 24.140625 1.046875 C 20.835938 1.046875 17.90625 0.550781 15.34375 -0.4375 C 12.789062 -1.425781 10.632812 -2.835938 8.875 -4.671875 C 7.113281 -6.515625 5.789062 -8.726562 4.90625 -11.3125 C 4.03125 -13.894531 3.59375 -16.8125 3.59375 -20.0625 C 3.59375 -23.320312 4.03125 -26.320312 4.90625 -29.0625 C 5.789062 -31.8125 7.070312 -34.195312 8.75 -36.21875 C 10.425781 -38.238281 12.503906 -39.804688 14.984375 -40.921875 C 17.460938 -42.046875 20.300781 -42.609375 23.5 -42.609375 C 26.382812 -42.609375 28.984375 -42.128906 31.296875 -41.171875 C 33.617188 -40.210938 35.578125 -38.757812 37.171875 -36.8125 C 38.773438 -34.875 39.960938 -32.453125 40.734375 -29.546875 C 41.503906 -26.640625 41.8125 -23.265625 41.65625 -19.421875 L 9.109375 -19.1875 L 9.109375 -24.625 L 36.375 -24.859375 L 33.5 -21.59375 C 33.769531 -24.675781 33.488281 -27.257812 32.65625 -29.34375 C 31.832031 -31.425781 30.617188 -32.972656 29.015625 -33.984375 C 27.421875 -34.992188 25.582031 -35.5 23.5 -35.5 C 21.15625 -35.5 19.117188 -34.898438 17.390625 -33.703125 C 15.660156 -32.503906 14.328125 -30.757812 13.390625 -28.46875 C 12.460938 -26.175781 12 -23.429688 12 -20.234375 C 12 -15.429688 13.050781 -11.816406 15.15625 -9.390625 C 17.257812 -6.960938 20.28125 -5.75 24.21875 -5.75 C 25.875 -5.75 27.300781 -5.945312 28.5 -6.34375 C 29.695312 -6.75 30.695312 -7.3125 31.5 -8.03125 C 32.300781 -8.75 32.941406 -9.570312 33.421875 -10.5 C 33.898438 -11.4375 34.273438 -12.414062 34.546875 -13.4375 L 42.21875 -11.75 C 41.738281 -9.832031 41.03125 -8.085938 40.09375 -6.515625 C 39.164062 -4.941406 37.953125 -3.59375 36.453125 -2.46875 C 34.960938 -1.351562 33.203125 -0.488281 31.171875 0.125 C 29.148438 0.738281 26.804688 1.046875 24.140625 1.046875 Z M 24.140625 1.046875 "/></g></g></g><g fill="#7264c1" fill-opacity="1"><g transform="translate(204.347181, 735.479436)"><g><path d="M 21.671875 1.046875 C 18.847656 1.046875 16.300781 0.75 14.03125 0.15625 C 11.769531 -0.425781 9.863281 -1.265625 8.3125 -2.359375 C 6.769531 -3.453125 5.554688 -4.785156 4.671875 -6.359375 C 3.796875 -7.929688 3.304688 -9.703125 3.203125 -11.671875 L 10.3125 -13.828125 C 10.3125 -12.179688 10.789062 -10.742188 11.75 -9.515625 C 12.707031 -8.285156 14.066406 -7.335938 15.828125 -6.671875 C 17.585938 -6.003906 19.691406 -5.671875 22.140625 -5.671875 C 25.078125 -5.671875 27.34375 -6.148438 28.9375 -7.109375 C 30.539062 -8.078125 31.34375 -9.410156 31.34375 -11.109375 C 31.34375 -12.390625 30.898438 -13.398438 30.015625 -14.140625 C 29.140625 -14.890625 27.898438 -15.503906 26.296875 -15.984375 C 24.703125 -16.460938 22.8125 -16.914062 20.625 -17.34375 C 18.601562 -17.769531 16.617188 -18.265625 14.671875 -18.828125 C 12.722656 -19.390625 10.9375 -20.125 9.3125 -21.03125 C 7.6875 -21.9375 6.378906 -23.117188 5.390625 -24.578125 C 4.410156 -26.046875 3.921875 -27.898438 3.921875 -30.140625 C 3.921875 -32.703125 4.585938 -34.898438 5.921875 -36.734375 C 7.253906 -38.578125 9.1875 -40.015625 11.71875 -41.046875 C 14.25 -42.085938 17.269531 -42.609375 20.78125 -42.609375 C 24.195312 -42.609375 27.144531 -42.101562 29.625 -41.09375 C 32.101562 -40.082031 34.085938 -38.65625 35.578125 -36.8125 C 37.066406 -34.976562 37.945312 -32.78125 38.21875 -30.21875 L 30.859375 -28.140625 C 30.804688 -29.847656 30.335938 -31.273438 29.453125 -32.421875 C 28.578125 -33.566406 27.394531 -34.414062 25.90625 -34.96875 C 24.414062 -35.53125 22.65625 -35.8125 20.625 -35.8125 C 17.957031 -35.8125 15.878906 -35.332031 14.390625 -34.375 C 12.898438 -33.414062 12.15625 -32.113281 12.15625 -30.46875 C 12.15625 -29.1875 12.617188 -28.15625 13.546875 -27.375 C 14.484375 -26.601562 15.75 -25.988281 17.34375 -25.53125 C 18.945312 -25.082031 20.816406 -24.644531 22.953125 -24.21875 C 25.023438 -23.800781 27.046875 -23.320312 29.015625 -22.78125 C 30.992188 -22.25 32.769531 -21.539062 34.34375 -20.65625 C 35.914062 -19.78125 37.164062 -18.609375 38.09375 -17.140625 C 39.03125 -15.679688 39.5 -13.832031 39.5 -11.59375 C 39.5 -8.875 38.773438 -6.566406 37.328125 -4.671875 C 35.890625 -2.785156 33.835938 -1.359375 31.171875 -0.390625 C 28.515625 0.566406 25.347656 1.046875 21.671875 1.046875 Z M 21.671875 1.046875 "/></g></g></g><g fill="#7264c1" fill-opacity="1"><g transform="translate(247.041957, 735.479436)"><g><path d="M 24.140625 1.046875 C 20.835938 1.046875 17.90625 0.550781 15.34375 -0.4375 C 12.789062 -1.425781 10.632812 -2.835938 8.875 -4.671875 C 7.113281 -6.515625 5.789062 -8.726562 4.90625 -11.3125 C 4.03125 -13.894531 3.59375 -16.8125 3.59375 -20.0625 C 3.59375 -23.320312 4.03125 -26.320312 4.90625 -29.0625 C 5.789062 -31.8125 7.070312 -34.195312 8.75 -36.21875 C 10.425781 -38.238281 12.503906 -39.804688 14.984375 -40.921875 C 17.460938 -42.046875 20.300781 -42.609375 23.5 -42.609375 C 26.382812 -42.609375 28.984375 -42.128906 31.296875 -41.171875 C 33.617188 -40.210938 35.578125 -38.757812 37.171875 -36.8125 C 38.773438 -34.875 39.960938 -32.453125 40.734375 -29.546875 C 41.503906 -26.640625 41.8125 -23.265625 41.65625 -19.421875 L 9.109375 -19.1875 L 9.109375 -24.625 L 36.375 -24.859375 L 33.5 -21.59375 C 33.769531 -24.675781 33.488281 -27.257812 32.65625 -29.34375 C 31.832031 -31.425781 30.617188 -32.972656 29.015625 -33.984375 C 27.421875 -34.992188 25.582031 -35.5 23.5 -35.5 C 21.15625 -35.5 19.117188 -34.898438 17.390625 -33.703125 C 15.660156 -32.503906 14.328125 -30.757812 13.390625 -28.46875 C 12.460938 -26.175781 12 -23.429688 12 -20.234375 C 12 -15.429688 13.050781 -11.816406 15.15625 -9.390625 C 17.257812 -6.960938 20.28125 -5.75 24.21875 -5.75 C 25.875 -5.75 27.300781 -5.945312 28.5 -6.34375 C 29.695312 -6.75 30.695312 -7.3125 31.5 -8.03125 C 32.300781 -8.75 32.941406 -9.570312 33.421875 -10.5 C 33.898438 -11.4375 34.273438 -12.414062 34.546875 -13.4375 L 42.21875 -11.75 C 41.738281 -9.832031 41.03125 -8.085938 40.09375 -6.515625 C 39.164062 -4.941406 37.953125 -3.59375 36.453125 -2.46875 C 34.960938 -1.351562 33.203125 -0.488281 31.171875 0.125 C 29.148438 0.738281 26.804688 1.046875 24.140625 1.046875 Z M 24.140625 1.046875 "/></g></g></g><g fill="#7264c1" fill-opacity="1"><g transform="translate(292.295226, 735.479436)"><g><path d="M 5.75 0 L 5.75 -41.578125 L 13.265625 -41.578125 L 12.796875 -28.140625 L 14.15625 -28.140625 C 14.84375 -31.609375 15.851562 -34.40625 17.1875 -36.53125 C 18.519531 -38.664062 20.160156 -40.210938 22.109375 -41.171875 C 24.054688 -42.128906 26.253906 -42.609375 28.703125 -42.609375 C 31.210938 -42.609375 33.304688 -42.179688 34.984375 -41.328125 C 36.660156 -40.484375 38.015625 -39.335938 39.046875 -37.890625 C 40.085938 -36.453125 40.890625 -34.851562 41.453125 -33.09375 C 42.015625 -31.34375 42.398438 -29.53125 42.609375 -27.65625 C 42.828125 -25.789062 42.9375 -24.007812 42.9375 -22.3125 L 42.9375 0 L 34.21875 0 L 34.21875 -21.1875 C 34.21875 -22.25 34.164062 -23.566406 34.0625 -25.140625 C 33.957031 -26.710938 33.632812 -28.242188 33.09375 -29.734375 C 32.5625 -31.234375 31.734375 -32.5 30.609375 -33.53125 C 29.492188 -34.570312 27.925781 -35.09375 25.90625 -35.09375 C 23.507812 -35.09375 21.46875 -34.332031 19.78125 -32.8125 C 18.101562 -31.300781 16.820312 -29.28125 15.9375 -26.75 C 15.0625 -24.21875 14.570312 -21.40625 14.46875 -18.3125 L 14.46875 0 Z M 5.75 0 "/></g></g></g><g fill="#7264c1" fill-opacity="1"><g transform="translate(340.266863, 735.479436)"><g><path d="M 19.59375 0.875 C 17.613281 0.875 15.863281 0.609375 14.34375 0.078125 C 12.832031 -0.453125 11.566406 -1.273438 10.546875 -2.390625 C 9.535156 -3.515625 8.773438 -4.925781 8.265625 -6.625 C 7.765625 -8.332031 7.515625 -10.390625 7.515625 -12.796875 L 7.515625 -34.453125 L 1.4375 -34.453125 L 1.515625 -41.5 L 5.28125 -41.5 C 6.769531 -41.5 7.859375 -41.765625 8.546875 -42.296875 C 9.242188 -42.828125 9.671875 -43.707031 9.828125 -44.9375 L 10.71875 -50.84375 L 15.828125 -50.84375 L 15.828125 -41.578125 L 27.265625 -41.578125 L 27.265625 -34.296875 L 15.828125 -34.296875 L 15.828125 -13.03125 C 15.828125 -10.789062 16.359375 -9.257812 17.421875 -8.4375 C 18.492188 -7.613281 19.851562 -7.203125 21.5 -7.203125 C 22.519531 -7.203125 23.535156 -7.320312 24.546875 -7.5625 C 25.554688 -7.800781 26.539062 -8.265625 27.5 -8.953125 L 27.5 -0.5625 C 25.957031 -0.03125 24.519531 0.335938 23.1875 0.546875 C 21.851562 0.765625 20.65625 0.875 19.59375 0.875 Z M 19.59375 0.875 "/></g></g></g><g fill="#7264c1" fill-opacity="1"><g transform="translate(370.329103, 735.479436)"><g><path d="M 5.75 0 L 5.75 -41.578125 L 14.46875 -41.578125 L 14.46875 0 Z M 10.15625 -48.296875 C 8.289062 -48.296875 6.875 -48.691406 5.90625 -49.484375 C 4.945312 -50.285156 4.46875 -51.429688 4.46875 -52.921875 C 4.46875 -54.421875 4.945312 -55.566406 5.90625 -56.359375 C 6.875 -57.160156 8.289062 -57.5625 10.15625 -57.5625 C 12.019531 -57.5625 13.441406 -57.160156 14.421875 -56.359375 C 15.410156 -55.566406 15.90625 -54.421875 15.90625 -52.921875 C 15.90625 -51.429688 15.410156 -50.285156 14.421875 -49.484375 C 13.441406 -48.691406 12.019531 -48.296875 10.15625 -48.296875 Z M 10.15625 -48.296875 "/></g></g></g><g fill="#7264c1" fill-opacity="1"><g transform="translate(390.637096, 735.479436)"><g><path d="M 5.75 0 L 5.75 -41.578125 L 13.265625 -41.578125 L 12.796875 -28.140625 L 14.15625 -28.140625 C 14.84375 -31.609375 15.851562 -34.40625 17.1875 -36.53125 C 18.519531 -38.664062 20.160156 -40.210938 22.109375 -41.171875 C 24.054688 -42.128906 26.253906 -42.609375 28.703125 -42.609375 C 31.210938 -42.609375 33.304688 -42.179688 34.984375 -41.328125 C 36.660156 -40.484375 38.015625 -39.335938 39.046875 -37.890625 C 40.085938 -36.453125 40.890625 -34.851562 41.453125 -33.09375 C 42.015625 -31.34375 42.398438 -29.53125 42.609375 -27.65625 C 42.828125 -25.789062 42.9375 -24.007812 42.9375 -22.3125 L 42.9375 0 L 34.21875 0 L 34.21875 -21.1875 C 34.21875 -22.25 34.164062 -23.566406 34.0625 -25.140625 C 33.957031 -26.710938 33.632812 -28.242188 33.09375 -29.734375 C 32.5625 -31.234375 31.734375 -32.5 30.609375 -33.53125 C 29.492188 -34.570312 27.925781 -35.09375 25.90625 -35.09375 C 23.507812 -35.09375 21.46875 -34.332031 19.78125 -32.8125 C 18.101562 -31.300781 16.820312 -29.28125 15.9375 -26.75 C 15.0625 -24.21875 14.570312 -21.40625 14.46875 -18.3125 L 14.46875 0 Z M 5.75 0 "/></g></g></g><g fill="#7264c1" fill-opacity="1"><g transform="translate(438.768643, 735.479436)"><g><path d="M 21.671875 14.078125 C 17.191406 14.078125 13.535156 13.726562 10.703125 13.03125 C 7.878906 12.34375 5.800781 11.316406 4.46875 9.953125 C 3.144531 8.597656 2.484375 6.90625 2.484375 4.875 C 2.484375 2.425781 3.425781 0.429688 5.3125 -1.109375 C 7.207031 -2.660156 10.097656 -3.675781 13.984375 -4.15625 L 13.984375 -5.671875 C 11.109375 -5.617188 8.9375 -5.925781 7.46875 -6.59375 C 6.007812 -7.257812 5.28125 -8.335938 5.28125 -9.828125 C 5.28125 -11.273438 6.007812 -12.53125 7.46875 -13.59375 C 8.9375 -14.65625 11.320312 -15.5625 14.625 -16.3125 L 14.625 -17.75 C 11.425781 -17.90625 8.9375 -18.941406 7.15625 -20.859375 C 5.375 -22.785156 4.484375 -25.238281 4.484375 -28.21875 C 4.484375 -30.9375 5.226562 -33.320312 6.71875 -35.375 C 8.207031 -37.425781 10.363281 -39.007812 13.1875 -40.125 C 16.019531 -41.25 19.429688 -41.8125 23.421875 -41.8125 L 43.578125 -41.8125 L 43.578125 -34.78125 L 30.546875 -36.703125 L 30.546875 -35.171875 C 33.796875 -34.585938 36.21875 -33.5625 37.8125 -32.09375 C 39.414062 -30.632812 40.21875 -28.703125 40.21875 -26.296875 C 40.21875 -24.117188 39.535156 -22.175781 38.171875 -20.46875 C 36.816406 -18.757812 34.847656 -17.4375 32.265625 -16.5 C 29.679688 -15.570312 26.492188 -15.109375 22.703125 -15.109375 C 21.960938 -15.109375 21.191406 -15.132812 20.390625 -15.1875 C 19.585938 -15.238281 18.441406 -15.375 16.953125 -15.59375 C 15.617188 -14.789062 14.5625 -14.039062 13.78125 -13.34375 C 13.007812 -12.65625 12.625 -12.046875 12.625 -11.515625 C 12.625 -10.984375 12.957031 -10.566406 13.625 -10.265625 C 14.289062 -9.972656 15.101562 -9.773438 16.0625 -9.671875 C 17.03125 -9.566406 17.96875 -9.515625 18.875 -9.515625 L 29.34375 -9.515625 C 30.40625 -9.515625 31.765625 -9.421875 33.421875 -9.234375 C 35.078125 -9.046875 36.726562 -8.617188 38.375 -7.953125 C 40.03125 -7.285156 41.414062 -6.207031 42.53125 -4.71875 C 43.65625 -3.226562 44.21875 -1.203125 44.21875 1.359375 C 44.21875 4.347656 43.363281 6.773438 41.65625 8.640625 C 39.945312 10.503906 37.425781 11.875 34.09375 12.75 C 30.769531 13.632812 26.628906 14.078125 21.671875 14.078125 Z M 22.140625 6.875 C 25.609375 6.875 28.394531 6.671875 30.5 6.265625 C 32.601562 5.867188 34.117188 5.226562 35.046875 4.34375 C 35.984375 3.46875 36.453125 2.335938 36.453125 0.953125 C 36.453125 -0.265625 36.132812 -1.234375 35.5 -1.953125 C 34.863281 -2.671875 34.078125 -3.175781 33.140625 -3.46875 C 32.203125 -3.769531 31.253906 -3.945312 30.296875 -4 C 29.335938 -4.050781 28.515625 -4.078125 27.828125 -4.078125 L 18.15625 -4.078125 C 15.375 -3.546875 13.4375 -2.71875 12.34375 -1.59375 C 11.257812 -0.476562 10.71875 0.742188 10.71875 2.078125 C 10.71875 3.410156 11.195312 4.421875 12.15625 5.109375 C 13.113281 5.804688 14.441406 6.273438 16.140625 6.515625 C 17.847656 6.753906 19.847656 6.875 22.140625 6.875 Z M 22.703125 -20.234375 C 25.742188 -20.234375 28.050781 -20.910156 29.625 -22.265625 C 31.195312 -23.628906 31.984375 -25.425781 31.984375 -27.65625 C 31.984375 -30.0625 31.179688 -32.019531 29.578125 -33.53125 C 27.984375 -35.050781 25.640625 -35.8125 22.546875 -35.8125 C 19.554688 -35.8125 17.234375 -35.066406 15.578125 -33.578125 C 13.929688 -32.085938 13.109375 -30.195312 13.109375 -27.90625 C 13.109375 -26.351562 13.476562 -25.003906 14.21875 -23.859375 C 14.96875 -22.710938 16.0625 -21.820312 17.5 -21.1875 C 18.945312 -20.550781 20.679688 -20.234375 22.703125 -20.234375 Z M 22.703125 -20.234375 "/></g></g></g><g fill="#7264c1" fill-opacity="1"><g transform="translate(485.540983, 735.479436)"><g/></g></g><g fill="#7264c1" fill-opacity="1"><g transform="translate(504.969498, 735.479436)"><g><path d="M 20.625 1.046875 C 17.101562 1.046875 14.078125 0.140625 11.546875 -1.671875 C 9.015625 -3.484375 7.066406 -6.03125 5.703125 -9.3125 C 4.347656 -12.59375 3.671875 -16.414062 3.671875 -20.78125 C 3.671875 -25.050781 4.3125 -28.820312 5.59375 -32.09375 C 6.875 -35.375 8.753906 -37.929688 11.234375 -39.765625 C 13.710938 -41.609375 16.738281 -42.53125 20.3125 -42.53125 C 23.132812 -42.53125 25.488281 -41.957031 27.375 -40.8125 C 29.269531 -39.664062 30.789062 -38.09375 31.9375 -36.09375 C 33.082031 -34.09375 33.953125 -31.816406 34.546875 -29.265625 L 36.0625 -29.265625 C 35.789062 -30.910156 35.519531 -32.585938 35.25 -34.296875 C 34.988281 -36.003906 34.773438 -37.644531 34.609375 -39.21875 C 34.453125 -40.789062 34.375 -42.191406 34.375 -43.421875 L 34.375 -56.203125 L 43.171875 -56.203125 L 43.171875 0 L 35.578125 0 L 35.90625 -11.671875 L 34.546875 -11.671875 C 33.898438 -9.054688 32.988281 -6.789062 31.8125 -4.875 C 30.644531 -2.957031 29.128906 -1.488281 27.265625 -0.46875 C 25.398438 0.539062 23.1875 1.046875 20.625 1.046875 Z M 23.03125 -6.3125 C 24.84375 -6.3125 26.46875 -6.738281 27.90625 -7.59375 C 29.34375 -8.445312 30.539062 -9.566406 31.5 -10.953125 C 32.457031 -12.335938 33.1875 -13.84375 33.6875 -15.46875 C 34.195312 -17.09375 34.453125 -18.625 34.453125 -20.0625 L 34.453125 -21.1875 C 34.453125 -22.25 34.304688 -23.40625 34.015625 -24.65625 C 33.722656 -25.914062 33.285156 -27.171875 32.703125 -28.421875 C 32.117188 -29.671875 31.359375 -30.800781 30.421875 -31.8125 C 29.484375 -32.832031 28.398438 -33.644531 27.171875 -34.25 C 25.953125 -34.863281 24.570312 -35.171875 23.03125 -35.171875 C 20.84375 -35.171875 18.972656 -34.546875 17.421875 -33.296875 C 15.878906 -32.046875 14.707031 -30.328125 13.90625 -28.140625 C 13.113281 -25.953125 12.71875 -23.445312 12.71875 -20.625 C 12.71875 -17.75 13.128906 -15.226562 13.953125 -13.0625 C 14.773438 -10.90625 15.957031 -9.238281 17.5 -8.0625 C 19.050781 -6.894531 20.894531 -6.3125 23.03125 -6.3125 Z M 23.03125 -6.3125 "/></g></g></g><g fill="#7264c1" fill-opacity="1"><g transform="translate(553.900592, 735.479436)"><g><path d="M 24.140625 1.046875 C 20.835938 1.046875 17.90625 0.550781 15.34375 -0.4375 C 12.789062 -1.425781 10.632812 -2.835938 8.875 -4.671875 C 7.113281 -6.515625 5.789062 -8.726562 4.90625 -11.3125 C 4.03125 -13.894531 3.59375 -16.8125 3.59375 -20.0625 C 3.59375 -23.320312 4.03125 -26.320312 4.90625 -29.0625 C 5.789062 -31.8125 7.070312 -34.195312 8.75 -36.21875 C 10.425781 -38.238281 12.503906 -39.804688 14.984375 -40.921875 C 17.460938 -42.046875 20.300781 -42.609375 23.5 -42.609375 C 26.382812 -42.609375 28.984375 -42.128906 31.296875 -41.171875 C 33.617188 -40.210938 35.578125 -38.757812 37.171875 -36.8125 C 38.773438 -34.875 39.960938 -32.453125 40.734375 -29.546875 C 41.503906 -26.640625 41.8125 -23.265625 41.65625 -19.421875 L 9.109375 -19.1875 L 9.109375 -24.625 L 36.375 -24.859375 L 33.5 -21.59375 C 33.769531 -24.675781 33.488281 -27.257812 32.65625 -29.34375 C 31.832031 -31.425781 30.617188 -32.972656 29.015625 -33.984375 C 27.421875 -34.992188 25.582031 -35.5 23.5 -35.5 C 21.15625 -35.5 19.117188 -34.898438 17.390625 -33.703125 C 15.660156 -32.503906 14.328125 -30.757812 13.390625 -28.46875 C 12.460938 -26.175781 12 -23.429688 12 -20.234375 C 12 -15.429688 13.050781 -11.816406 15.15625 -9.390625 C 17.257812 -6.960938 20.28125 -5.75 24.21875 -5.75 C 25.875 -5.75 27.300781 -5.945312 28.5 -6.34375 C 29.695312 -6.75 30.695312 -7.3125 31.5 -8.03125 C 32.300781 -8.75 32.941406 -9.570312 33.421875 -10.5 C 33.898438 -11.4375 34.273438 -12.414062 34.546875 -13.4375 L 42.21875 -11.75 C 41.738281 -9.832031 41.03125 -8.085938 40.09375 -6.515625 C 39.164062 -4.941406 37.953125 -3.59375 36.453125 -2.46875 C 34.960938 -1.351562 33.203125 -0.488281 31.171875 0.125 C 29.148438 0.738281 26.804688 1.046875 24.140625 1.046875 Z M 24.140625 1.046875 "/></g></g></g><g fill="#7264c1" fill-opacity="1"><g transform="translate(599.313771, 735.479436)"><g><path d="M 24.140625 1.046875 C 20.515625 1.046875 17.410156 0.488281 14.828125 -0.625 C 12.242188 -1.75 10.125 -3.296875 8.46875 -5.265625 C 6.820312 -7.242188 5.597656 -9.507812 4.796875 -12.0625 C 3.992188 -14.625 3.59375 -17.375 3.59375 -20.3125 C 3.59375 -23.457031 4.019531 -26.375 4.875 -29.0625 C 5.726562 -31.75 6.992188 -34.117188 8.671875 -36.171875 C 10.347656 -38.222656 12.4375 -39.804688 14.9375 -40.921875 C 17.445312 -42.046875 20.359375 -42.609375 23.671875 -42.609375 C 26.117188 -42.609375 28.351562 -42.289062 30.375 -41.65625 C 32.40625 -41.019531 34.164062 -40.097656 35.65625 -38.890625 C 37.144531 -37.691406 38.359375 -36.265625 39.296875 -34.609375 C 40.234375 -32.960938 40.859375 -31.128906 41.171875 -29.109375 L 33.015625 -26.703125 C 32.910156 -28.359375 32.472656 -29.851562 31.703125 -31.1875 C 30.929688 -32.519531 29.851562 -33.570312 28.46875 -34.34375 C 27.082031 -35.113281 25.398438 -35.5 23.421875 -35.5 C 21.722656 -35.5 20.191406 -35.164062 18.828125 -34.5 C 17.472656 -33.832031 16.328125 -32.875 15.390625 -31.625 C 14.453125 -30.375 13.71875 -28.828125 13.1875 -26.984375 C 12.65625 -25.140625 12.390625 -22.992188 12.390625 -20.546875 C 12.390625 -17.398438 12.84375 -14.734375 13.75 -12.546875 C 14.65625 -10.367188 15.988281 -8.707031 17.75 -7.5625 C 19.507812 -6.414062 21.664062 -5.84375 24.21875 -5.84375 C 26.40625 -5.84375 28.21875 -6.253906 29.65625 -7.078125 C 31.101562 -7.898438 32.222656 -9.003906 33.015625 -10.390625 C 33.816406 -11.773438 34.328125 -13.347656 34.546875 -15.109375 L 42.375 -13.4375 C 42.050781 -11.25 41.421875 -9.25 40.484375 -7.4375 C 39.554688 -5.625 38.316406 -4.085938 36.765625 -2.828125 C 35.222656 -1.578125 33.398438 -0.617188 31.296875 0.046875 C 29.191406 0.710938 26.804688 1.046875 24.140625 1.046875 Z M 24.140625 1.046875 "/></g></g></g><g fill="#7264c1" fill-opacity="1"><g transform="translate(643.447674, 735.479436)"><g><path d="M 5.75 0 L 5.75 -41.578125 L 14.46875 -41.578125 L 14.46875 0 Z M 10.15625 -48.296875 C 8.289062 -48.296875 6.875 -48.691406 5.90625 -49.484375 C 4.945312 -50.285156 4.46875 -51.429688 4.46875 -52.921875 C 4.46875 -54.421875 4.945312 -55.566406 5.90625 -56.359375 C 6.875 -57.160156 8.289062 -57.5625 10.15625 -57.5625 C 12.019531 -57.5625 13.441406 -57.160156 14.421875 -56.359375 C 15.410156 -55.566406 15.90625 -54.421875 15.90625 -52.921875 C 15.90625 -51.429688 15.410156 -50.285156 14.421875 -49.484375 C 13.441406 -48.691406 12.019531 -48.296875 10.15625 -48.296875 Z M 10.15625 -48.296875 "/></g></g></g><g fill="#7264c1" fill-opacity="1"><g transform="translate(663.755668, 735.479436)"><g><path d="M 28.46875 1.046875 C 25.800781 1.046875 23.503906 0.515625 21.578125 -0.546875 C 19.660156 -1.617188 18.113281 -3.113281 16.9375 -5.03125 C 15.769531 -6.957031 14.921875 -9.171875 14.390625 -11.671875 L 13.109375 -11.671875 L 13.359375 0 L 5.75 0 L 5.75 -56.203125 L 14.46875 -56.203125 L 14.46875 -43.171875 C 14.46875 -41.835938 14.398438 -40.394531 14.265625 -38.84375 C 14.140625 -37.300781 13.957031 -35.726562 13.71875 -34.125 C 13.476562 -32.53125 13.195312 -30.910156 12.875 -29.265625 L 14.390625 -29.265625 C 14.972656 -31.765625 15.835938 -34.015625 16.984375 -36.015625 C 18.128906 -38.015625 19.648438 -39.597656 21.546875 -40.765625 C 23.441406 -41.941406 25.773438 -42.53125 28.546875 -42.53125 C 32.003906 -42.53125 34.972656 -41.625 37.453125 -39.8125 C 39.929688 -38 41.847656 -35.453125 43.203125 -32.171875 C 44.566406 -28.898438 45.25 -25.050781 45.25 -20.625 C 45.25 -16.3125 44.582031 -12.523438 43.25 -9.265625 C 41.914062 -6.015625 39.992188 -3.484375 37.484375 -1.671875 C 34.984375 0.140625 31.976562 1.046875 28.46875 1.046875 Z M 25.984375 -6.3125 C 28.117188 -6.3125 29.941406 -6.894531 31.453125 -8.0625 C 32.972656 -9.238281 34.144531 -10.90625 34.96875 -13.0625 C 35.800781 -15.226562 36.21875 -17.75 36.21875 -20.625 C 36.21875 -23.445312 35.816406 -25.953125 35.015625 -28.140625 C 34.210938 -30.328125 33.050781 -32.046875 31.53125 -33.296875 C 30.019531 -34.546875 28.171875 -35.171875 25.984375 -35.171875 C 24.441406 -35.171875 23.039062 -34.863281 21.78125 -34.25 C 20.53125 -33.644531 19.453125 -32.832031 18.546875 -31.8125 C 17.640625 -30.800781 16.878906 -29.679688 16.265625 -28.453125 C 15.648438 -27.234375 15.195312 -25.984375 14.90625 -24.703125 C 14.613281 -23.421875 14.46875 -22.25 14.46875 -21.1875 L 14.46875 -20.0625 C 14.46875 -18.625 14.71875 -17.09375 15.21875 -15.46875 C 15.726562 -13.84375 16.460938 -12.335938 17.421875 -10.953125 C 18.390625 -9.566406 19.59375 -8.445312 21.03125 -7.59375 C 22.46875 -6.738281 24.117188 -6.3125 25.984375 -6.3125 Z M 25.984375 -6.3125 "/></g></g></g><g fill="#7264c1" fill-opacity="1"><g transform="translate(712.686762, 735.479436)"><g><path d="M 5.75 0 L 5.75 -56.203125 L 14.390625 -56.203125 L 14.390625 0 Z M 5.75 0 "/></g></g></g></svg>